<svg width="20" height="20" viewBox="0 0 20 20" fill="none" xmlns="http://www.w3.org/2000/svg">
<path d="M11.5624 11.1715C14.6424 11.1715 17.1481 8.6658 17.1481 5.58577C17.1481 2.50575 14.6424 0 11.5624 0C8.48231 0 5.97656 2.50575 5.97656 5.58577C5.97656 8.6658 8.48234 11.1715 11.5624 11.1715ZM11.5624 1.17184C13.9962 1.17184 15.9763 3.1519 15.9763 5.58577C15.9763 8.01965 13.9962 9.99973 11.5624 9.99973C9.12845 9.99973 7.1484 8.01965 7.1484 5.58577C7.1484 3.1519 9.12854 1.17184 11.5624 1.17184Z" fill="#B4B8D7"/>
<path d="M12.2157 5.01242C11.9237 4.90915 11.4476 4.73568 11.209 4.54861C11.1946 4.53724 11.1676 4.46924 11.1866 4.36819C11.1957 4.31968 11.2377 4.15772 11.3948 4.11034C11.6376 4.03679 11.8679 4.08511 12.0191 4.19706C12.2577 4.41436 12.6273 4.39783 12.8455 4.15971C13.0634 3.92187 13.0479 3.5529 12.8115 3.334C12.8115 3.334 12.5399 3.09229 12.1517 2.97791V2.92968C12.1517 2.60609 11.8895 2.34375 11.5658 2.34375C11.2423 2.34375 10.9799 2.60609 10.9799 2.92968V3.01444C9.92674 3.39748 9.6791 4.83813 10.4859 5.47077C10.8536 5.75897 11.3787 5.95931 11.8247 6.11712C12.1151 6.21985 12.1447 6.42812 12.1183 6.5848C12.0889 6.75913 11.9387 7.05487 11.5619 7.05733C11.1712 7.05983 11.0785 7.0455 10.7934 6.85886C10.5226 6.68168 10.1595 6.75741 9.9822 7.02822C9.80501 7.29899 9.88083 7.66215 10.1516 7.83938C10.4631 8.04323 10.7097 8.14425 10.9799 8.19155V8.24791C10.9799 8.5715 11.2422 8.83384 11.5658 8.83384C11.8894 8.83384 12.1517 8.5715 12.1517 8.24791V8.1253C13.5713 7.61223 13.7597 5.55859 12.2157 5.01242Z" fill="#B4B8D7"/>
<path d="M16.9546 11.4054L10.2377 12.9337C10.084 12.7942 9.90755 12.6769 9.71209 12.5889L6.26301 11.0417C5.2598 10.5902 4.11155 10.5957 3.1156 11.0554L0.343419 12.3168C0.048857 12.4508 -0.0812564 12.7983 0.0528022 13.0928C0.186822 13.3874 0.534234 13.5175 0.828756 13.3834L3.60383 12.1207C4.29452 11.8018 5.08847 11.7981 5.78275 12.1105L9.23182 13.6578C9.53327 13.7935 9.72645 14.0949 9.72645 14.4228C9.72645 15.0292 9.10227 15.4395 8.54325 15.1878L5.56096 13.8458C5.26577 13.7129 4.91899 13.8446 4.78622 14.1397C4.65341 14.4347 4.78501 14.7817 5.08007 14.9144L8.06237 16.2565C9.56236 16.9315 11.2045 15.611 10.8521 13.9957C15.2272 13.0001 17.2397 12.5428 17.2677 12.5346C18.0574 12.3011 18.8277 12.8942 18.8277 13.6988C18.8277 14.1258 18.5995 14.5263 18.2335 14.7431L11.9211 18.461C11.2552 18.8555 10.4544 18.9351 9.72391 18.6792L4.88105 16.9843C4.75056 16.9387 4.6081 16.9407 4.47892 16.9898L0.37748 18.5523C0.0750671 18.6675 -0.0766472 19.006 0.0385448 19.3084C0.153736 19.6108 0.492282 19.7626 0.794656 19.6473L4.69603 18.1611L9.33664 19.7852C10.3734 20.1483 11.535 20.0518 12.5171 19.4699L18.8295 15.7521C19.5513 15.3245 19.9995 14.5377 19.9995 13.6988C19.9995 12.1277 18.495 10.9633 16.9546 11.4054Z" fill="#B4B8D7"/>
</svg>
