<svg width="22" height="22" viewBox="0 0 22 22" fill="none" xmlns="http://www.w3.org/2000/svg">
<path fill-rule="evenodd" clip-rule="evenodd" d="M7.34561 1.8335H4.56101C3.05323 1.8335 1.83325 3.06407 1.83325 4.57939V7.38816C1.83325 8.90285 3.05349 10.134 4.56101 10.134H7.34561C8.85313 10.134 10.0734 8.90285 10.0734 7.38816V4.57939C10.0734 3.06407 8.85339 1.8335 7.34561 1.8335ZM4.56101 3.11257H7.34561C8.14449 3.11257 8.7943 3.76802 8.7943 4.57939V7.38816C8.7943 8.19899 8.14415 8.85498 7.34561 8.85498H4.56101C3.76248 8.85498 3.11232 8.19899 3.11232 7.38816V4.57939C3.11232 3.76802 3.76213 3.11257 4.56101 3.11257ZM17.4397 1.8335H14.6542C13.1464 1.8335 11.9265 3.06407 11.9265 4.57939V7.38816C11.9265 8.90285 13.1467 10.134 14.6542 10.134H17.4397C18.9465 10.134 20.1666 8.90268 20.1666 7.38816V4.57939C20.1666 3.06425 18.9468 1.8335 17.4397 1.8335ZM14.6542 3.11257H17.4397C18.2378 3.11257 18.8875 3.76812 18.8875 4.57939V7.38816C18.8875 8.1989 18.2375 8.85498 17.4397 8.85498H14.6542C13.8557 8.85498 13.2055 8.19899 13.2055 7.38816V4.57939C13.2055 3.76802 13.8553 3.11257 14.6542 3.11257ZM4.56101 11.8663H7.34561C8.85356 11.8663 10.0734 13.097 10.0734 14.613V17.4209C10.0734 18.9363 8.85339 20.1668 7.34561 20.1668H4.56101C3.05323 20.1668 1.83325 18.9363 1.83325 17.4209V14.613C1.83325 13.097 3.05306 11.8663 4.56101 11.8663ZM7.34561 13.1453H4.56101C3.76204 13.1453 3.11232 13.8009 3.11232 14.6131V17.4209C3.11232 18.2323 3.76213 18.8878 4.56101 18.8878H7.34561C8.14449 18.8878 8.7943 18.2323 8.7943 17.4209V14.6131C8.7943 13.8009 8.14458 13.1453 7.34561 13.1453ZM17.4397 11.8663H14.6542C13.1463 11.8663 11.9265 13.097 11.9265 14.613V17.4209C11.9265 18.9363 13.1464 20.1668 14.6542 20.1668H17.4397C18.9468 20.1668 20.1666 18.9361 20.1666 17.4209V14.613C20.1666 13.0972 18.947 11.8663 17.4397 11.8663ZM14.6542 13.1453H17.4397C18.2379 13.1453 18.8875 13.801 18.8875 14.6131V17.4209C18.8875 18.2322 18.2378 18.8878 17.4397 18.8878H14.6542C13.8553 18.8878 13.2055 18.2323 13.2055 17.4209V14.6131C13.2055 13.8009 13.8553 13.1453 14.6542 13.1453Z" fill="#B4B8D7"/>
</svg>
