<svg width="20" height="20" viewBox="0 0 20 20" fill="none" xmlns="http://www.w3.org/2000/svg">
<path fill-rule="evenodd" clip-rule="evenodd" d="M3.49198 0H15.6076C16.568 0 17.4419 0.411282 18.0744 1.07349C18.7068 1.73569 19.1014 2.6507 19.1014 3.65814V5.27874C19.1014 6.28431 18.7068 7.19932 18.0744 7.86152H18.0725C17.4383 8.52561 16.5662 8.9369 15.6076 8.9369H3.49198C2.53159 8.9369 1.6577 8.52561 1.02525 7.86152C0.392803 7.19932 0 6.2862 0 5.27874V3.65814C0 2.65258 0.392803 1.73946 1.02525 1.07726V1.07349C1.6577 0.411282 2.53159 0 3.49198 0ZM15.6076 1.56023H3.49198C2.94242 1.56023 2.4433 1.79794 2.07933 2.17715L2.07753 2.17527C1.71535 2.55636 1.49013 3.08084 1.49013 3.65814V5.27874C1.49013 5.85416 1.71716 6.37865 2.07933 6.75786C2.4433 7.13895 2.94242 7.37478 3.49198 7.37478H15.6076C16.159 7.37478 16.6599 7.13895 17.0221 6.75974L17.0203 6.75786C17.3842 6.37865 17.6095 5.85416 17.6095 5.27874V3.65814C17.6095 3.08272 17.3842 2.55825 17.0203 2.17715C16.6581 1.79794 16.1572 1.56023 15.6076 1.56023ZM14.058 10.1406H15.6076C16.5644 10.1406 17.4365 10.5518 18.0707 11.2159H18.0725L18.0744 11.2178C18.7085 11.8819 19.1014 12.797 19.1014 13.7987V16.3418C19.1014 17.3474 18.7068 18.2625 18.0744 18.9247H18.0707C17.4383 19.5869 16.5644 20 15.6076 20H14.058C13.0995 20 12.2237 19.5869 11.5913 18.9247V18.9209C10.9588 18.2587 10.566 17.3455 10.566 16.3418V13.7987C10.566 12.7931 10.9588 11.88 11.5913 11.2178V11.214C12.2237 10.5518 13.0976 10.1406 14.058 10.1406ZM15.6076 11.7027H14.058C13.5085 11.7027 13.0075 11.9385 12.6454 12.3177H12.6435C12.2814 12.697 12.0562 13.2214 12.0562 13.7987V16.3418C12.0562 16.9191 12.2814 17.4417 12.6435 17.8229L12.6454 17.821C13.0094 18.2021 13.5103 18.4379 14.058 18.4379H15.6076C16.1572 18.4379 16.6581 18.2021 17.0221 17.8229L17.0203 17.821C17.3842 17.4399 17.6095 16.9154 17.6095 16.3418V13.7987C17.6095 13.2214 17.3842 12.697 17.0238 12.3196L17.0203 12.3158C16.6581 11.9366 16.159 11.7027 15.6076 11.7027ZM3.49198 10.1406H5.92267C6.88305 10.1406 7.75695 10.5518 8.3894 11.214C9.02184 11.8781 9.41464 12.7931 9.41464 13.7987V16.3418C9.41464 17.3455 9.02184 18.2587 8.3894 18.9209L8.38579 18.9247C7.75335 19.5869 6.87945 20 5.92267 20H3.49198C2.5352 20 1.6613 19.5869 1.02885 18.9247H1.02525C0.392803 18.2625 0 17.3474 0 16.3418V13.7987C0 12.7931 0.392803 11.88 1.02525 11.2178V11.214C1.6577 10.5518 2.53159 10.1406 3.49198 10.1406ZM5.92267 11.7027H3.49198C2.94242 11.7027 2.4433 11.9385 2.07933 12.3177H2.07753C1.71535 12.697 1.49013 13.2214 1.49013 13.7987V16.3418C1.49013 16.9172 1.71716 17.4417 2.07933 17.821V17.8229C2.4415 18.2021 2.94242 18.4379 3.49198 18.4379H5.92267C6.47224 18.4379 6.97315 18.2021 7.33532 17.8229C7.69929 17.4417 7.92453 16.9172 7.92453 16.3418V13.7987C7.92453 13.2232 7.69929 12.6988 7.33532 12.3196C6.97134 11.9385 6.47224 11.7027 5.92267 11.7027Z" fill="#B4B8D7"/>
</svg>
