<svg width="140" height="150" viewBox="0 0 140 150" fill="none" xmlns="http://www.w3.org/2000/svg">
<mask id="mask0_270_385" style="mask-type:alpha" maskUnits="userSpaceOnUse" x="0" y="0" width="140" height="150">
<rect width="140" height="150" rx="15" fill="#FFB119"/>
</mask>
<g mask="url(#mask0_270_385)">
<rect width="140" height="150" rx="15" fill="url(#paint0_linear_270_385)"/>
<path d="M72.7624 94.2918H82.7083C88.1783 94.2918 93.4244 96.8599 97.2923 101.431C101.16 106.002 103.333 112.202 103.333 118.667H71.2453L71.2499 124.083H107.917V118.667C107.902 112.903 106.493 107.265 103.856 102.417H117.083C121.416 102.415 125.66 103.865 129.323 106.599C132.987 109.332 135.92 113.237 137.782 117.86C126.942 134.765 109.392 145.75 89.5833 145.75C76.9287 145.75 66.2083 142.554 57.4999 136.948V86.5514C63.0761 87.4954 68.3417 90.1659 72.7624 94.2918ZM52.9166 134.917C52.9166 136.353 52.4337 137.731 51.5742 138.747C50.7146 139.763 49.5488 140.333 48.3333 140.333H39.1666C37.951 140.333 36.7852 139.763 35.9257 138.747C35.0661 137.731 34.5833 136.353 34.5833 134.917V86.1668C34.5833 84.7302 35.0661 83.3525 35.9257 82.3367C36.7852 81.3208 37.951 80.7502 39.1666 80.7502H48.3333C49.5488 80.7502 50.7146 81.3208 51.5742 82.3367C52.4337 83.3525 52.9166 84.7302 52.9166 86.1668V134.917ZM112.5 59.0835C116.147 59.0835 119.644 60.7955 122.223 63.843C124.801 66.8905 126.25 71.0237 126.25 75.3335C126.25 79.6433 124.801 83.7765 122.223 86.824C119.644 89.8714 116.147 91.5835 112.5 91.5835C108.853 91.5835 105.356 89.8714 102.777 86.824C100.199 83.7765 98.7499 79.6433 98.7499 75.3335C98.7499 71.0237 100.199 66.8905 102.777 63.843C105.356 60.7955 108.853 59.0835 112.5 59.0835ZM80.4166 42.8335C84.0633 42.8335 87.5607 44.5455 90.1393 47.593C92.7179 50.6405 94.1666 54.7737 94.1666 59.0835C94.1666 63.3933 92.7179 67.5265 90.1393 70.574C87.5607 73.6214 84.0633 75.3335 80.4166 75.3335C76.7699 75.3335 73.2725 73.6214 70.6939 70.574C68.1152 67.5265 66.6666 63.3933 66.6666 59.0835C66.6666 54.7737 68.1152 50.6405 70.6939 47.593C73.2725 44.5455 76.7699 42.8335 80.4166 42.8335Z" fill="white" fill-opacity="0.1"/>
</g>
<defs>
<linearGradient id="paint0_linear_270_385" x1="70" y1="0" x2="70" y2="198" gradientUnits="userSpaceOnUse">
<stop stop-color="#FF7817"/>
<stop offset="1" stop-color="#FFC148"/>
</linearGradient>
</defs>
</svg>
