<svg width="20" height="20" viewBox="0 0 20 20" fill="none" xmlns="http://www.w3.org/2000/svg">
<g clip-path="url(#clip0)">
<path d="M10 15.8483C9.82419 15.8483 9.65585 15.7742 9.53752 15.6442L5.16252 10.835C4.95252 10.6042 4.94502 10.2542 5.14502 10.0142L7.06419 7.71084C7.18335 7.56834 7.35919 7.48584 7.54419 7.48584H12.4559C12.6417 7.48584 12.8175 7.56834 12.9359 7.71084L14.855 10.0142C15.055 10.2542 15.0467 10.6042 14.8375 10.835L10.4625 15.6442C10.3442 15.7742 10.1759 15.8483 10 15.8483ZM6.45335 10.3958L10 14.2942L13.5467 10.395L12.1634 8.73501H7.83669L6.45335 10.3958Z" fill="#B4B8D7"/>
<path d="M14.1666 11.0381H5.83325C5.48825 11.0381 5.20825 10.7581 5.20825 10.4131C5.20825 10.0681 5.48825 9.78809 5.83325 9.78809H14.1666C14.5116 9.78809 14.7916 10.0681 14.7916 10.4131C14.7916 10.7581 14.5116 11.0381 14.1666 11.0381Z" fill="#B4B8D7"/>
<path d="M10 15.8482C9.655 15.8482 9.375 15.5682 9.375 15.2232V8.10986C9.375 7.76486 9.655 7.48486 10 7.48486C10.345 7.48486 10.625 7.76486 10.625 8.10986V15.2224C10.625 15.5682 10.345 15.8482 10 15.8482Z" fill="#B4B8D7"/>
<path d="M17.7083 19.1666H2.29167C1.0275 19.1666 0 18.1391 0 16.8749V3.12492C0 1.86075 1.0275 0.833252 2.29167 0.833252H17.7083C18.9725 0.833252 20 1.86075 20 3.12492V16.8749C20 18.1391 18.9725 19.1666 17.7083 19.1666ZM2.29167 2.08325C1.7175 2.08325 1.25 2.55075 1.25 3.12492V16.8749C1.25 17.4491 1.7175 17.9166 2.29167 17.9166H17.7083C18.2825 17.9166 18.75 17.4491 18.75 16.8749V3.12492C18.75 2.55075 18.2825 2.08325 17.7083 2.08325H2.29167Z" fill="#B4B8D7"/>
<path d="M19.375 5H0.625C0.28 5 0 4.72 0 4.375C0 4.03 0.28 3.75 0.625 3.75H19.375C19.72 3.75 20 4.03 20 4.375C20 4.72 19.72 5 19.375 5Z" fill="#B4B8D7"/>
</g>
<defs>
<clipPath id="clip0">
<rect width="20" height="20" fill="white"/>
</clipPath>
</defs>
</svg>
