<svg width="22" height="20" viewBox="0 0 22 20" fill="none" xmlns="http://www.w3.org/2000/svg">
<g clip-path="url(#clip0)">
<path d="M10.7547 0C8.77501 0 7.16987 1.62817 7.16987 3.63624C7.16987 4.65733 7.58823 5.57778 8.2569 6.23832L5.43433 11.248L6.99214 12.1474L9.81818 7.13149C10.1185 7.21413 10.4283 7.27276 10.7547 7.27276C12.7343 7.27276 14.3395 5.64432 14.3395 3.63624C14.3395 1.62817 12.7343 0 10.7547 0ZM10.7547 5.4545C9.76468 5.4545 8.96218 4.64042 8.96218 3.63624C8.96218 2.63207 9.76468 1.81826 10.7547 1.81826C11.7447 1.81826 12.5473 2.63207 12.5473 3.63624C12.5473 4.64042 11.7447 5.4545 10.7547 5.4545Z" fill="#B4B8D7"/>
<path d="M7.04273 15.4545C6.64292 13.8894 5.25314 12.7273 3.58482 12.7273C1.60514 12.7273 0 14.3555 0 16.3635C0 18.3716 1.60514 20 3.58482 20C5.25314 20 6.64292 18.8377 7.04273 17.2728H12.6274V15.4545H7.04273ZM3.58482 18.1818C2.59484 18.1818 1.79254 17.3677 1.79254 16.3635C1.79254 15.3594 2.59484 14.5455 3.58482 14.5455C4.57479 14.5455 5.37736 15.3594 5.37736 16.3635C5.37736 17.3677 4.57479 18.1818 3.58482 18.1818Z" fill="#B4B8D7"/>
<path d="M17.9247 12.7273C17.598 12.7273 17.2883 12.7859 16.9882 12.8685L14.1621 7.85229L12.604 8.75175L15.4266 13.7614C14.7582 14.422 14.3396 15.3418 14.3396 16.3635C14.3396 18.3716 15.945 20 17.9247 20C19.9043 20 21.5094 18.3716 21.5094 16.3635C21.5094 14.3554 19.9043 12.7273 17.9247 12.7273ZM17.9247 18.1818C16.9347 18.1818 16.1321 17.3677 16.1321 16.3635C16.1321 15.3593 16.9347 14.5455 17.9247 14.5455C18.9146 14.5455 19.7169 15.3593 19.7169 16.3635C19.7169 17.3677 18.9146 18.1818 17.9247 18.1818Z" fill="#B4B8D7"/>
</g>
<defs>
<clipPath id="clip0">
<rect width="21.6667" height="20" fill="white"/>
</clipPath>
</defs>
</svg>
