<svg width="20" height="20" viewBox="0 0 20 20" fill="none" xmlns="http://www.w3.org/2000/svg">
<g clip-path="url(#clip0)">
<path d="M14.8234 3.20578e-09H2.42259C1.78421 -3.44165e-05 1.17163 0.2771 0.717984 0.771164C0.264345 1.26523 0.00632055 1.93628 0 2.63846V17.3611C0.00632055 18.0632 0.264345 18.7343 0.717984 19.2284C1.17163 19.7224 1.78421 19.9996 2.42259 19.9995H17.7256C17.8211 20.0032 17.9161 19.9853 18.0049 19.9468C18.0937 19.9083 18.1745 19.8501 18.2419 19.7759C18.3095 19.7016 18.3623 19.6129 18.3973 19.5152C18.4323 19.4175 18.4486 19.3129 18.4453 19.208V15.4614H18.9489C19.1398 15.4614 19.3228 15.378 19.4577 15.2295C19.5927 15.0811 19.6685 14.8798 19.6685 14.6698V9.34015C19.6685 9.13022 19.5927 8.92889 19.4577 8.78045C19.3228 8.63201 19.1398 8.54861 18.9489 8.54861H18.4453V4.93392C18.4486 4.82898 18.4323 4.72441 18.3973 4.62671C18.3623 4.529 18.3095 4.44027 18.2419 4.36602C18.1745 4.29177 18.0937 4.2336 18.0049 4.19512C17.9161 4.15665 17.8211 4.1387 17.7256 4.14238H15.5429V0.791538C15.5429 0.581609 15.4671 0.380278 15.3322 0.231836C15.1972 0.0833938 15.0142 3.20578e-09 14.8234 3.20578e-09ZM1.43916 2.63846C1.43912 2.49762 1.46471 2.35819 1.51442 2.22839C1.56413 2.0986 1.63695 1.98106 1.7286 1.88271C1.82025 1.78435 1.92886 1.70717 2.04805 1.65571C2.16725 1.60425 2.29459 1.57955 2.42259 1.58308H14.1038V4.14238H2.42259C2.16176 4.14238 1.91163 4.02841 1.7272 3.82554C1.54277 3.62267 1.43916 3.34752 1.43916 3.06061V2.63846ZM18.2294 10.1317V13.8783H13.8399V10.1317H18.2294ZM17.0061 8.54861H13.1204C13.0249 8.54493 12.9299 8.56288 12.8411 8.60135C12.7523 8.63983 12.6715 8.698 12.6041 8.77225C12.5365 8.8465 12.4837 8.93523 12.4487 9.03293C12.4137 9.13064 12.3975 9.23521 12.4007 9.34015V14.6698C12.3975 14.7748 12.4137 14.8794 12.4487 14.9771C12.4837 15.0748 12.5365 15.1635 12.6041 15.2377C12.6715 15.312 12.7523 15.3702 12.8411 15.4086C12.9299 15.4471 13.0249 15.4651 13.1204 15.4614H17.0061V18.4165H2.42259C2.29459 18.42 2.16725 18.3953 2.04805 18.3438C1.92886 18.2924 1.82025 18.2152 1.7286 18.1168C1.63695 18.0185 1.56413 17.9009 1.51442 17.7711C1.46471 17.6413 1.43912 17.5019 1.43916 17.3611V5.488C1.75044 5.63462 2.0841 5.71519 2.42259 5.72546H17.0061V8.54861Z" fill="#B4B8D7"/>
</g>
<defs>
<clipPath id="clip0">
<rect width="20" height="20" fill="white"/>
</clipPath>
</defs>
</svg>
