<svg width="33" height="33" viewBox="0 0 33 33" fill="none" xmlns="http://www.w3.org/2000/svg">
<g clip-path="url(#clip0)">
<path d="M23.9438 7.00079V5.46178C23.9438 4.17726 22.9062 3.13232 21.631 3.13232H2.31297C1.03758 3.13232 0 4.17732 0 5.46178V7.83464C0 9.01529 0.876741 9.99283 2.00886 10.1433C1.85896 10.6407 1.8947 10.8461 1.8947 12.6061C1.8947 13.2575 2.12758 13.8551 2.5135 14.3193C2.12758 14.7834 1.8947 15.381 1.8947 16.0325C1.8947 17.771 1.8527 18.0163 2.02639 18.5503C0.865043 18.8344 0 19.8903 0 21.1467V22.8342C0 24.3076 1.18972 25.5063 2.65208 25.5063H12.749C14.8266 28.006 17.9395 29.5975 21.4136 29.5975C27.6534 29.5975 32.73 24.4644 32.73 18.1548C32.73 12.7246 28.9696 8.1659 23.9438 7.00079ZM2.31297 8.24639C2.09503 8.24639 1.91777 8.06164 1.91777 7.8347V5.46178C1.91777 5.23484 2.09503 5.05009 2.31297 5.05009H21.631C21.8488 5.05009 22.0261 5.23484 22.0261 5.46178V6.72904C19.7484 6.60566 17.5943 7.17097 15.7586 8.24633C15.255 8.24639 3.5519 8.24639 2.31297 8.24639ZM10.1019 18.4746H4.54679C4.14188 18.4746 3.81246 18.1361 3.81246 17.7201V16.0326C3.81246 15.6166 4.14188 15.2782 4.54679 15.2782H10.4597C10.1967 16.301 10.0718 17.3714 10.1019 18.4746ZM4.54672 13.3604C4.14182 13.3604 3.81241 13.0221 3.81241 12.6061V10.9185C3.81241 10.5025 4.14182 10.1642 4.54672 10.1642H13.3221C12.4266 11.0911 11.6852 12.1707 11.14 13.3604H4.54672ZM2.65208 23.5886C2.24718 23.5886 1.91777 23.2502 1.91777 22.8342V21.1467C1.91777 20.7307 2.24718 20.3922 2.65208 20.3922H10.3151C10.5384 21.5266 10.9276 22.6012 11.4567 23.5886H2.65208ZM21.4136 27.6799C16.2313 27.6799 12.0151 23.407 12.0151 18.1548C12.0151 12.9028 16.2314 8.62994 21.4136 8.62994C26.596 8.62994 30.8122 12.9028 30.8122 18.1548C30.8122 23.407 26.596 27.6799 21.4136 27.6799Z" fill="#FF4206"/>
<path d="M23.0659 17.1949C22.9199 17.1426 22.7716 17.0885 22.623 17.0328V14.2333C23.1294 14.4513 23.1864 14.724 23.6779 14.724C24.5474 14.724 24.9621 13.66 24.3346 13.0685C24.344 13.0584 23.7092 12.4579 22.623 12.2325V11.7624C22.623 11.2328 22.1936 10.8035 21.664 10.8035C21.1345 10.8035 20.7052 11.2328 20.7052 11.7624V12.2987C18.2302 12.9731 17.6882 16.1853 19.362 17.5141C19.713 17.7928 20.1388 18.0484 20.7052 18.313V22.0881C20.3384 22.0252 20.0467 21.8855 19.5968 21.5877C19.1552 21.2953 18.5603 21.4163 18.268 21.8578C17.9755 22.2994 18.0964 22.8943 18.5381 23.1867C19.3591 23.7303 19.9602 23.9444 20.7053 24.0188V24.5475C20.7053 25.0771 21.1345 25.5063 21.6641 25.5063C22.1936 25.5063 22.623 25.0771 22.623 24.5475V23.9273C25.8545 23.0683 26.4467 18.4044 23.0659 17.1949ZM20.7053 16.1228C20.6525 16.0864 20.6016 16.0495 20.5546 16.0123C20.2111 15.7396 20.2182 14.9054 20.7053 14.427V16.1228ZM22.623 21.8495V19.0855C23.8294 19.6672 23.5509 21.2306 22.623 21.8495Z" fill="#FF4206"/>
</g>
<defs>
<clipPath id="clip0">
<rect width="32.73" height="32.73" fill="white"/>
</clipPath>
</defs>
</svg>
