<svg width="24" height="24" viewBox="0 0 24 24" fill="none" xmlns="http://www.w3.org/2000/svg">
<path d="M7.61744 3.06345L7.61754 3.06356C7.79572 3.24343 7.79436 3.53366 7.61445 3.71183C7.61444 3.71184 7.61443 3.71185 7.61442 3.71186L7.56165 3.65857C7.48692 3.73265 7.38937 3.76961 7.29186 3.76961C7.19316 3.76961 7.09447 3.73173 7.01947 3.65603L7.61744 3.06345ZM7.61744 3.06345L7.60367 3.04961L7.60367 3.04961L7.60339 3.04933C7.42396 2.87077 7.13376 2.87141 6.95511 3.05089L6.95511 3.0509C6.77651 3.23037 6.77719 3.52058 6.95667 3.69919L7.61744 3.06345Z" fill="#F04086" stroke="#F04086" stroke-width="0.15"/>
<mask id="path-2-outside-1" maskUnits="userSpaceOnUse" x="1" y="1" width="22" height="22" fill="black">
<rect fill="white" x="1" y="1" width="22" height="22"/>
<path d="M18.9788 16.1417C18.3345 16.1417 17.7401 16.358 17.2633 16.7212L14.2584 13.7163C14.6216 13.2395 14.8379 12.6449 14.8379 12.0007C14.8379 11.6931 14.7881 11.397 14.6971 11.1194L17.7898 9.61995C18.1941 10.179 18.8513 10.5437 19.5924 10.5437C20.8186 10.5437 21.8162 9.54609 21.8162 8.31991C21.8162 7.09372 20.8186 6.0961 19.5924 6.0961C18.3662 6.0961 17.3686 7.09372 17.3686 8.31991C17.3686 8.53164 17.3989 8.73625 17.4545 8.93039L14.3619 10.4298C13.9201 9.76788 13.2077 9.30188 12.3841 9.19006V8.17074C12.9163 8.00659 13.3043 7.51014 13.3043 6.92477C13.3043 6.20592 12.7195 5.62117 12.0007 5.62117C11.2819 5.62117 10.6971 6.20596 10.6971 6.92477C10.6971 7.51022 11.085 8.00667 11.6173 8.17074V9.19006C11.1212 9.2574 10.6655 9.45303 10.285 9.74292L7.80648 7.26439C8.41084 6.48956 8.62445 5.46303 8.36267 4.50108C8.30704 4.2967 8.09629 4.17611 7.89203 4.23182C7.68769 4.28742 7.56717 4.49813 7.62277 4.70246C7.84556 5.52109 7.61342 6.40148 7.01716 7.00288C7.01466 7.00526 7.01202 7.00729 7.00956 7.00974C7.00742 7.01189 7.00558 7.01427 7.0035 7.01645C6.07614 7.93684 4.57294 7.93485 3.6483 7.01016C2.72143 6.08333 2.72143 4.5752 3.6483 3.64833C4.23447 3.06212 5.06694 2.82549 5.87521 3.01522C6.08124 3.06353 6.28768 2.93577 6.33611 2.72959C6.3845 2.52345 6.25662 2.31712 6.05048 2.26869C4.98189 2.01783 3.88117 2.3308 3.10595 3.10598C1.8801 4.33182 1.8801 6.32644 3.10595 7.55232C3.71889 8.16526 4.52398 8.47171 5.3291 8.47171C6.0136 8.47171 6.69755 8.24935 7.26394 7.80635L9.74266 10.2851C9.3795 10.7619 9.16328 11.3564 9.16328 12.0006C9.16328 13.5651 10.4361 14.8379 12.0006 14.8379C12.6448 14.8379 13.2393 14.6216 13.7161 14.2585L16.721 17.2633C16.3578 17.7401 16.1415 18.3347 16.1415 18.9789C16.1415 20.5434 17.4143 21.8162 18.9788 21.8162C20.5433 21.8162 21.8161 20.5434 21.8161 18.9789C21.8161 17.4145 20.5433 16.1417 18.9788 16.1417ZM19.5923 6.86284C20.3957 6.86284 21.0493 7.51647 21.0493 8.31983C21.0493 9.12319 20.3957 9.77681 19.5923 9.77681C18.7889 9.77681 18.1353 9.12319 18.1353 8.31983C18.1353 7.51643 18.7889 6.86284 19.5923 6.86284ZM11.4638 6.92462C11.4638 6.62863 11.7045 6.38783 12.0006 6.38783C12.2965 6.38783 12.5373 6.6286 12.5373 6.92462C12.5373 7.2206 12.2966 7.46141 12.0006 7.46141C11.7046 7.46141 11.4638 7.22064 11.4638 6.92462ZM12.0006 14.0711C10.8589 14.0711 9.93009 13.1423 9.93009 12.0006C9.93009 10.8589 10.8589 9.93015 12.0006 9.93015C13.1422 9.93015 14.071 10.8589 14.071 12.0006C14.071 13.1423 13.1422 14.0711 12.0006 14.0711ZM18.9788 21.0495C17.8372 21.0495 16.9084 20.1207 16.9084 18.979C16.9084 17.8373 17.8372 16.9085 18.9788 16.9085C20.1205 16.9085 21.0493 17.8373 21.0493 18.979C21.0493 20.1207 20.1205 21.0495 18.9788 21.0495Z"/>
<path fill-rule="evenodd" clip-rule="evenodd" d="M8.54005 4.45281C8.80267 5.41785 8.61336 6.4438 8.04851 7.24645L10.3045 9.5024C10.6389 9.27467 11.0214 9.11241 11.4334 9.03385V8.2997C10.8941 8.07647 10.5132 7.54473 10.5132 6.92477C10.5132 6.10444 11.1803 5.43734 12.0007 5.43734C12.821 5.43734 13.4881 6.10439 13.4881 6.92477C13.4881 7.54468 13.1073 8.0764 12.5679 8.29969V9.03386C13.3231 9.1779 13.9789 9.60332 14.422 10.1964L17.2398 8.83019C17.2039 8.66578 17.1847 8.49512 17.1847 8.3199C17.1847 6.99219 18.2647 5.91228 19.5924 5.91228C20.9201 5.91228 22 6.99219 22 8.3199C22 9.64762 20.9201 10.7275 19.5924 10.7275C18.8452 10.7275 18.1772 10.3852 17.7358 9.85043L14.9179 11.2166C14.9854 11.4667 15.0217 11.7295 15.0217 12.0007C15.0217 12.629 14.8284 13.2131 14.4989 13.6969L17.2827 16.4806C17.7664 16.1512 18.3505 15.9579 18.9788 15.9579C20.6448 15.9579 22 17.3129 21.9999 18.9789C21.9999 20.6449 20.6448 22 18.9788 22C17.3128 22 15.9577 20.6449 15.9577 18.9789C15.9577 18.3506 16.1509 17.7665 16.4804 17.2828L13.6966 14.499C13.2129 14.8284 12.6289 15.0217 12.0006 15.0217C10.3345 15.0217 8.97945 13.6666 8.97945 12.0006C8.97945 11.3723 9.1727 10.7882 9.50215 10.3045L7.24617 8.04855C6.67349 8.45281 6.00134 8.65554 5.3291 8.65554C4.47738 8.65554 3.62488 8.33122 2.97597 7.68231C1.67834 6.38464 1.67833 4.27363 2.97597 2.976C3.79625 2.15576 4.96206 1.82436 6.09249 2.08973C6.39743 2.16137 6.58667 2.46661 6.51507 2.7716C6.44341 3.07668 6.13799 3.26566 5.83324 3.19419C5.08679 3.01897 4.31938 3.23718 3.77828 3.77831C2.9232 4.63339 2.9232 6.02514 3.77828 6.88018C4.62999 7.73192 6.01426 7.73508 6.87012 6.88983L6.87183 6.88791C6.87374 6.8858 6.87637 6.88297 6.87958 6.87976C6.88287 6.87646 6.8858 6.87375 6.888 6.87175L6.89042 6.86961C7.43761 6.31496 7.65048 5.50431 7.4454 4.75074C7.36315 4.44847 7.54143 4.13671 7.84377 4.05444C7.8438 4.05443 7.84373 4.05445 7.84377 4.05444C8.14608 3.97205 8.45777 4.15058 8.54005 4.45281ZM7.01716 7.00288C7.01579 7.00418 7.01438 7.00538 7.01297 7.0066C7.01182 7.00761 7.01067 7.00863 7.00956 7.00974C7.00836 7.01095 7.00725 7.01222 7.00614 7.0135C7.00528 7.0145 7.00441 7.01549 7.0035 7.01645C6.07614 7.93684 4.57294 7.93485 3.6483 7.01016C2.72143 6.08333 2.72143 4.5752 3.6483 3.64833C4.23447 3.06212 5.06694 2.82549 5.87521 3.01522C6.08124 3.06353 6.28768 2.93577 6.33611 2.72959C6.3845 2.52345 6.25662 2.31712 6.05048 2.26869C4.98189 2.01783 3.88117 2.3308 3.10595 3.10598C1.8801 4.33182 1.8801 6.32644 3.10595 7.55232C3.71889 8.16526 4.52398 8.47171 5.3291 8.47171C6.0136 8.47171 6.69755 8.24935 7.26394 7.80635L9.74266 10.2851C9.3795 10.7619 9.16328 11.3564 9.16328 12.0006C9.16328 13.5651 10.4361 14.8379 12.0006 14.8379C12.6448 14.8379 13.2393 14.6216 13.7161 14.2585L16.721 17.2633C16.3578 17.7401 16.1415 18.3347 16.1415 18.9789C16.1415 20.5434 17.4143 21.8162 18.9788 21.8162C20.5433 21.8162 21.8161 20.5434 21.8161 18.9789C21.8161 17.4145 20.5433 16.1417 18.9788 16.1417C18.3345 16.1417 17.7401 16.358 17.2633 16.7212L14.2584 13.7163C14.6216 13.2395 14.8379 12.6449 14.8379 12.0007C14.8379 11.6931 14.7881 11.397 14.6971 11.1194L17.7898 9.61995C18.1941 10.179 18.8513 10.5437 19.5924 10.5437C20.8186 10.5437 21.8162 9.54609 21.8162 8.31991C21.8162 7.09372 20.8186 6.0961 19.5924 6.0961C18.3662 6.0961 17.3686 7.09372 17.3686 8.31991C17.3686 8.53164 17.3989 8.73625 17.4545 8.93039L14.3619 10.4298C13.9201 9.76788 13.2077 9.30188 12.3841 9.19006V8.17074C12.9163 8.00659 13.3043 7.51014 13.3043 6.92477C13.3043 6.20592 12.7195 5.62117 12.0007 5.62117C11.2819 5.62117 10.6971 6.20596 10.6971 6.92477C10.6971 7.51022 11.085 8.00667 11.6173 8.17074V9.19006C11.1212 9.2574 10.6655 9.45303 10.285 9.74292L7.80648 7.26439C8.41084 6.48956 8.62445 5.46303 8.36267 4.50108C8.30704 4.2967 8.09629 4.17611 7.89203 4.23182C7.68769 4.28742 7.56717 4.49813 7.62277 4.70246C7.84556 5.52109 7.61342 6.40148 7.01716 7.00288ZM20.8655 8.31983C20.8655 7.61799 20.2941 7.04667 19.5923 7.04667C18.8904 7.04667 18.3191 7.61796 18.3191 8.31983C18.3191 9.02166 18.8904 9.59299 19.5923 9.59299C20.2941 9.59299 20.8655 9.02166 20.8655 8.31983ZM12.0006 6.57166C11.8061 6.57166 11.6476 6.73015 11.6476 6.92462C11.6476 7.11911 11.8061 7.27758 12.0006 7.27758C12.1951 7.27758 12.3535 7.11908 12.3535 6.92462C12.3535 6.73013 12.195 6.57166 12.0006 6.57166ZM10.1139 12.0006C10.1139 13.0408 10.9604 13.8873 12.0006 13.8873C13.0407 13.8873 13.8872 13.0407 13.8872 12.0006C13.8872 10.9605 13.0407 10.114 12.0006 10.114C10.9604 10.114 10.1139 10.9605 10.1139 12.0006ZM17.0922 18.979C17.0922 20.0192 17.9387 20.8656 18.9788 20.8656C20.019 20.8656 20.8655 20.0192 20.8655 18.979C20.8655 17.9389 20.019 17.0924 18.9788 17.0924C17.9387 17.0924 17.0922 17.9389 17.0922 18.979ZM21.0493 8.31983C21.0493 7.51647 20.3957 6.86284 19.5923 6.86284C18.7889 6.86284 18.1353 7.51643 18.1353 8.31983C18.1353 9.12319 18.7889 9.77681 19.5923 9.77681C20.3957 9.77681 21.0493 9.12319 21.0493 8.31983ZM12.0006 6.38783C11.7045 6.38783 11.4638 6.62863 11.4638 6.92462C11.4638 7.22064 11.7046 7.46141 12.0006 7.46141C12.2966 7.46141 12.5373 7.2206 12.5373 6.92462C12.5373 6.6286 12.2965 6.38783 12.0006 6.38783ZM9.93009 12.0006C9.93009 13.1423 10.8589 14.0711 12.0006 14.0711C13.1422 14.0711 14.071 13.1423 14.071 12.0006C14.071 10.8589 13.1422 9.93015 12.0006 9.93015C10.8589 9.93015 9.93009 10.8589 9.93009 12.0006ZM16.9084 18.979C16.9084 20.1207 17.8372 21.0495 18.9788 21.0495C20.1205 21.0495 21.0493 20.1207 21.0493 18.979C21.0493 17.8373 20.1205 16.9085 18.9788 16.9085C17.8372 16.9085 16.9084 17.8373 16.9084 18.979Z"/>
<path d="M8.54174 15.4538C8.392 15.3041 8.14924 15.3041 7.9995 15.4538L5.68438 17.7689C5.32275 17.5144 4.88255 17.3643 4.40765 17.3643C3.18145 17.3643 2.18382 18.3619 2.18382 19.5881C2.18382 20.8143 3.18145 21.8119 4.40765 21.8119C5.63384 21.8119 6.63147 20.8143 6.63147 19.5881C6.63147 19.1131 6.48131 18.6729 6.22666 18.3112L8.54174 15.9961C8.69148 15.8464 8.69148 15.6036 8.54174 15.4538ZM4.40765 21.0451C3.60428 21.0451 2.95065 20.3915 2.95065 19.5881C2.95065 18.7847 3.60428 18.1311 4.40765 18.1311C5.21101 18.1311 5.86464 18.7847 5.86464 19.5881C5.86464 20.3915 5.21101 21.0451 4.40765 21.0451Z"/>
<path fill-rule="evenodd" clip-rule="evenodd" d="M7.86952 15.3239C8.09105 15.1023 8.4502 15.1023 8.67172 15.3239C8.89325 15.5454 8.89325 15.9046 8.67172 16.1261L6.46242 18.3354C6.68587 18.7004 6.81529 19.1294 6.81529 19.5881C6.81529 20.9158 5.73536 21.9957 4.40765 21.9957C3.07993 21.9957 2 20.9158 2 19.5881C2 18.2604 3.07993 17.1805 4.40765 17.1805C4.86626 17.1805 5.29515 17.3099 5.66016 17.5332L7.86952 15.3239ZM5.68438 17.7689C5.32275 17.5144 4.88255 17.3643 4.40765 17.3643C3.18145 17.3643 2.18382 18.3619 2.18382 19.5881C2.18382 20.8143 3.18145 21.8119 4.40765 21.8119C5.63384 21.8119 6.63147 20.8143 6.63147 19.5881C6.63147 19.1131 6.48131 18.6729 6.22666 18.3112L8.54174 15.9961C8.69148 15.8464 8.69148 15.6036 8.54174 15.4538C8.392 15.3041 8.14924 15.3041 7.9995 15.4538L5.68438 17.7689ZM3.13447 19.5881C3.13447 20.2899 3.7058 20.8613 4.40765 20.8613C5.10949 20.8613 5.68082 20.2899 5.68082 19.5881C5.68082 18.8863 5.10949 18.3149 4.40765 18.3149C3.7058 18.3149 3.13447 18.8863 3.13447 19.5881ZM2.95065 19.5881C2.95065 20.3915 3.60428 21.0451 4.40765 21.0451C5.21101 21.0451 5.86464 20.3915 5.86464 19.5881C5.86464 18.7847 5.21101 18.1311 4.40765 18.1311C3.60428 18.1311 2.95065 18.7847 2.95065 19.5881Z"/>
</mask>
<path d="M18.9788 16.1417C18.3345 16.1417 17.7401 16.358 17.2633 16.7212L14.2584 13.7163C14.6216 13.2395 14.8379 12.6449 14.8379 12.0007C14.8379 11.6931 14.7881 11.397 14.6971 11.1194L17.7898 9.61995C18.1941 10.179 18.8513 10.5437 19.5924 10.5437C20.8186 10.5437 21.8162 9.54609 21.8162 8.31991C21.8162 7.09372 20.8186 6.0961 19.5924 6.0961C18.3662 6.0961 17.3686 7.09372 17.3686 8.31991C17.3686 8.53164 17.3989 8.73625 17.4545 8.93039L14.3619 10.4298C13.9201 9.76788 13.2077 9.30188 12.3841 9.19006V8.17074C12.9163 8.00659 13.3043 7.51014 13.3043 6.92477C13.3043 6.20592 12.7195 5.62117 12.0007 5.62117C11.2819 5.62117 10.6971 6.20596 10.6971 6.92477C10.6971 7.51022 11.085 8.00667 11.6173 8.17074V9.19006C11.1212 9.2574 10.6655 9.45303 10.285 9.74292L7.80648 7.26439C8.41084 6.48956 8.62445 5.46303 8.36267 4.50108C8.30704 4.2967 8.09629 4.17611 7.89203 4.23182C7.68769 4.28742 7.56717 4.49813 7.62277 4.70246C7.84556 5.52109 7.61342 6.40148 7.01716 7.00288C7.01466 7.00526 7.01202 7.00729 7.00956 7.00974C7.00742 7.01189 7.00558 7.01427 7.0035 7.01645C6.07614 7.93684 4.57294 7.93485 3.6483 7.01016C2.72143 6.08333 2.72143 4.5752 3.6483 3.64833C4.23447 3.06212 5.06694 2.82549 5.87521 3.01522C6.08124 3.06353 6.28768 2.93577 6.33611 2.72959C6.3845 2.52345 6.25662 2.31712 6.05048 2.26869C4.98189 2.01783 3.88117 2.3308 3.10595 3.10598C1.8801 4.33182 1.8801 6.32644 3.10595 7.55232C3.71889 8.16526 4.52398 8.47171 5.3291 8.47171C6.0136 8.47171 6.69755 8.24935 7.26394 7.80635L9.74266 10.2851C9.3795 10.7619 9.16328 11.3564 9.16328 12.0006C9.16328 13.5651 10.4361 14.8379 12.0006 14.8379C12.6448 14.8379 13.2393 14.6216 13.7161 14.2585L16.721 17.2633C16.3578 17.7401 16.1415 18.3347 16.1415 18.9789C16.1415 20.5434 17.4143 21.8162 18.9788 21.8162C20.5433 21.8162 21.8161 20.5434 21.8161 18.9789C21.8161 17.4145 20.5433 16.1417 18.9788 16.1417ZM19.5923 6.86284C20.3957 6.86284 21.0493 7.51647 21.0493 8.31983C21.0493 9.12319 20.3957 9.77681 19.5923 9.77681C18.7889 9.77681 18.1353 9.12319 18.1353 8.31983C18.1353 7.51643 18.7889 6.86284 19.5923 6.86284ZM11.4638 6.92462C11.4638 6.62863 11.7045 6.38783 12.0006 6.38783C12.2965 6.38783 12.5373 6.6286 12.5373 6.92462C12.5373 7.2206 12.2966 7.46141 12.0006 7.46141C11.7046 7.46141 11.4638 7.22064 11.4638 6.92462ZM12.0006 14.0711C10.8589 14.0711 9.93009 13.1423 9.93009 12.0006C9.93009 10.8589 10.8589 9.93015 12.0006 9.93015C13.1422 9.93015 14.071 10.8589 14.071 12.0006C14.071 13.1423 13.1422 14.0711 12.0006 14.0711ZM18.9788 21.0495C17.8372 21.0495 16.9084 20.1207 16.9084 18.979C16.9084 17.8373 17.8372 16.9085 18.9788 16.9085C20.1205 16.9085 21.0493 17.8373 21.0493 18.979C21.0493 20.1207 20.1205 21.0495 18.9788 21.0495Z" fill="#F04086"/>
<path fill-rule="evenodd" clip-rule="evenodd" d="M8.54005 4.45281C8.80267 5.41785 8.61336 6.4438 8.04851 7.24645L10.3045 9.5024C10.6389 9.27467 11.0214 9.11241 11.4334 9.03385V8.2997C10.8941 8.07647 10.5132 7.54473 10.5132 6.92477C10.5132 6.10444 11.1803 5.43734 12.0007 5.43734C12.821 5.43734 13.4881 6.10439 13.4881 6.92477C13.4881 7.54468 13.1073 8.0764 12.5679 8.29969V9.03386C13.3231 9.1779 13.9789 9.60332 14.422 10.1964L17.2398 8.83019C17.2039 8.66578 17.1847 8.49512 17.1847 8.3199C17.1847 6.99219 18.2647 5.91228 19.5924 5.91228C20.9201 5.91228 22 6.99219 22 8.3199C22 9.64762 20.9201 10.7275 19.5924 10.7275C18.8452 10.7275 18.1772 10.3852 17.7358 9.85043L14.9179 11.2166C14.9854 11.4667 15.0217 11.7295 15.0217 12.0007C15.0217 12.629 14.8284 13.2131 14.4989 13.6969L17.2827 16.4806C17.7664 16.1512 18.3505 15.9579 18.9788 15.9579C20.6448 15.9579 22 17.3129 21.9999 18.9789C21.9999 20.6449 20.6448 22 18.9788 22C17.3128 22 15.9577 20.6449 15.9577 18.9789C15.9577 18.3506 16.1509 17.7665 16.4804 17.2828L13.6966 14.499C13.2129 14.8284 12.6289 15.0217 12.0006 15.0217C10.3345 15.0217 8.97945 13.6666 8.97945 12.0006C8.97945 11.3723 9.1727 10.7882 9.50215 10.3045L7.24617 8.04855C6.67349 8.45281 6.00134 8.65554 5.3291 8.65554C4.47738 8.65554 3.62488 8.33122 2.97597 7.68231C1.67834 6.38464 1.67833 4.27363 2.97597 2.976C3.79625 2.15576 4.96206 1.82436 6.09249 2.08973C6.39743 2.16137 6.58667 2.46661 6.51507 2.7716C6.44341 3.07668 6.13799 3.26566 5.83324 3.19419C5.08679 3.01897 4.31938 3.23718 3.77828 3.77831C2.9232 4.63339 2.9232 6.02514 3.77828 6.88018C4.62999 7.73192 6.01426 7.73508 6.87012 6.88983L6.87183 6.88791C6.87374 6.8858 6.87637 6.88297 6.87958 6.87976C6.88287 6.87646 6.8858 6.87375 6.888 6.87175L6.89042 6.86961C7.43761 6.31496 7.65048 5.50431 7.4454 4.75074C7.36315 4.44847 7.54143 4.13671 7.84377 4.05444C7.8438 4.05443 7.84373 4.05445 7.84377 4.05444C8.14608 3.97205 8.45777 4.15058 8.54005 4.45281ZM7.01716 7.00288C7.01579 7.00418 7.01438 7.00538 7.01297 7.0066C7.01182 7.00761 7.01067 7.00863 7.00956 7.00974C7.00836 7.01095 7.00725 7.01222 7.00614 7.0135C7.00528 7.0145 7.00441 7.01549 7.0035 7.01645C6.07614 7.93684 4.57294 7.93485 3.6483 7.01016C2.72143 6.08333 2.72143 4.5752 3.6483 3.64833C4.23447 3.06212 5.06694 2.82549 5.87521 3.01522C6.08124 3.06353 6.28768 2.93577 6.33611 2.72959C6.3845 2.52345 6.25662 2.31712 6.05048 2.26869C4.98189 2.01783 3.88117 2.3308 3.10595 3.10598C1.8801 4.33182 1.8801 6.32644 3.10595 7.55232C3.71889 8.16526 4.52398 8.47171 5.3291 8.47171C6.0136 8.47171 6.69755 8.24935 7.26394 7.80635L9.74266 10.2851C9.3795 10.7619 9.16328 11.3564 9.16328 12.0006C9.16328 13.5651 10.4361 14.8379 12.0006 14.8379C12.6448 14.8379 13.2393 14.6216 13.7161 14.2585L16.721 17.2633C16.3578 17.7401 16.1415 18.3347 16.1415 18.9789C16.1415 20.5434 17.4143 21.8162 18.9788 21.8162C20.5433 21.8162 21.8161 20.5434 21.8161 18.9789C21.8161 17.4145 20.5433 16.1417 18.9788 16.1417C18.3345 16.1417 17.7401 16.358 17.2633 16.7212L14.2584 13.7163C14.6216 13.2395 14.8379 12.6449 14.8379 12.0007C14.8379 11.6931 14.7881 11.397 14.6971 11.1194L17.7898 9.61995C18.1941 10.179 18.8513 10.5437 19.5924 10.5437C20.8186 10.5437 21.8162 9.54609 21.8162 8.31991C21.8162 7.09372 20.8186 6.0961 19.5924 6.0961C18.3662 6.0961 17.3686 7.09372 17.3686 8.31991C17.3686 8.53164 17.3989 8.73625 17.4545 8.93039L14.3619 10.4298C13.9201 9.76788 13.2077 9.30188 12.3841 9.19006V8.17074C12.9163 8.00659 13.3043 7.51014 13.3043 6.92477C13.3043 6.20592 12.7195 5.62117 12.0007 5.62117C11.2819 5.62117 10.6971 6.20596 10.6971 6.92477C10.6971 7.51022 11.085 8.00667 11.6173 8.17074V9.19006C11.1212 9.2574 10.6655 9.45303 10.285 9.74292L7.80648 7.26439C8.41084 6.48956 8.62445 5.46303 8.36267 4.50108C8.30704 4.2967 8.09629 4.17611 7.89203 4.23182C7.68769 4.28742 7.56717 4.49813 7.62277 4.70246C7.84556 5.52109 7.61342 6.40148 7.01716 7.00288ZM20.8655 8.31983C20.8655 7.61799 20.2941 7.04667 19.5923 7.04667C18.8904 7.04667 18.3191 7.61796 18.3191 8.31983C18.3191 9.02166 18.8904 9.59299 19.5923 9.59299C20.2941 9.59299 20.8655 9.02166 20.8655 8.31983ZM12.0006 6.57166C11.8061 6.57166 11.6476 6.73015 11.6476 6.92462C11.6476 7.11911 11.8061 7.27758 12.0006 7.27758C12.1951 7.27758 12.3535 7.11908 12.3535 6.92462C12.3535 6.73013 12.195 6.57166 12.0006 6.57166ZM10.1139 12.0006C10.1139 13.0408 10.9604 13.8873 12.0006 13.8873C13.0407 13.8873 13.8872 13.0407 13.8872 12.0006C13.8872 10.9605 13.0407 10.114 12.0006 10.114C10.9604 10.114 10.1139 10.9605 10.1139 12.0006ZM17.0922 18.979C17.0922 20.0192 17.9387 20.8656 18.9788 20.8656C20.019 20.8656 20.8655 20.0192 20.8655 18.979C20.8655 17.9389 20.019 17.0924 18.9788 17.0924C17.9387 17.0924 17.0922 17.9389 17.0922 18.979ZM21.0493 8.31983C21.0493 7.51647 20.3957 6.86284 19.5923 6.86284C18.7889 6.86284 18.1353 7.51643 18.1353 8.31983C18.1353 9.12319 18.7889 9.77681 19.5923 9.77681C20.3957 9.77681 21.0493 9.12319 21.0493 8.31983ZM12.0006 6.38783C11.7045 6.38783 11.4638 6.62863 11.4638 6.92462C11.4638 7.22064 11.7046 7.46141 12.0006 7.46141C12.2966 7.46141 12.5373 7.2206 12.5373 6.92462C12.5373 6.6286 12.2965 6.38783 12.0006 6.38783ZM9.93009 12.0006C9.93009 13.1423 10.8589 14.0711 12.0006 14.0711C13.1422 14.0711 14.071 13.1423 14.071 12.0006C14.071 10.8589 13.1422 9.93015 12.0006 9.93015C10.8589 9.93015 9.93009 10.8589 9.93009 12.0006ZM16.9084 18.979C16.9084 20.1207 17.8372 21.0495 18.9788 21.0495C20.1205 21.0495 21.0493 20.1207 21.0493 18.979C21.0493 17.8373 20.1205 16.9085 18.9788 16.9085C17.8372 16.9085 16.9084 17.8373 16.9084 18.979Z" fill="#F04086"/>
<path d="M8.54174 15.4538C8.392 15.3041 8.14924 15.3041 7.9995 15.4538L5.68438 17.7689C5.32275 17.5144 4.88255 17.3643 4.40765 17.3643C3.18145 17.3643 2.18382 18.3619 2.18382 19.5881C2.18382 20.8143 3.18145 21.8119 4.40765 21.8119C5.63384 21.8119 6.63147 20.8143 6.63147 19.5881C6.63147 19.1131 6.48131 18.6729 6.22666 18.3112L8.54174 15.9961C8.69148 15.8464 8.69148 15.6036 8.54174 15.4538ZM4.40765 21.0451C3.60428 21.0451 2.95065 20.3915 2.95065 19.5881C2.95065 18.7847 3.60428 18.1311 4.40765 18.1311C5.21101 18.1311 5.86464 18.7847 5.86464 19.5881C5.86464 20.3915 5.21101 21.0451 4.40765 21.0451Z" fill="#F04086"/>
<path fill-rule="evenodd" clip-rule="evenodd" d="M7.86952 15.3239C8.09105 15.1023 8.4502 15.1023 8.67172 15.3239C8.89325 15.5454 8.89325 15.9046 8.67172 16.1261L6.46242 18.3354C6.68587 18.7004 6.81529 19.1294 6.81529 19.5881C6.81529 20.9158 5.73536 21.9957 4.40765 21.9957C3.07993 21.9957 2 20.9158 2 19.5881C2 18.2604 3.07993 17.1805 4.40765 17.1805C4.86626 17.1805 5.29515 17.3099 5.66016 17.5332L7.86952 15.3239ZM5.68438 17.7689C5.32275 17.5144 4.88255 17.3643 4.40765 17.3643C3.18145 17.3643 2.18382 18.3619 2.18382 19.5881C2.18382 20.8143 3.18145 21.8119 4.40765 21.8119C5.63384 21.8119 6.63147 20.8143 6.63147 19.5881C6.63147 19.1131 6.48131 18.6729 6.22666 18.3112L8.54174 15.9961C8.69148 15.8464 8.69148 15.6036 8.54174 15.4538C8.392 15.3041 8.14924 15.3041 7.9995 15.4538L5.68438 17.7689ZM3.13447 19.5881C3.13447 20.2899 3.7058 20.8613 4.40765 20.8613C5.10949 20.8613 5.68082 20.2899 5.68082 19.5881C5.68082 18.8863 5.10949 18.3149 4.40765 18.3149C3.7058 18.3149 3.13447 18.8863 3.13447 19.5881ZM2.95065 19.5881C2.95065 20.3915 3.60428 21.0451 4.40765 21.0451C5.21101 21.0451 5.86464 20.3915 5.86464 19.5881C5.86464 18.7847 5.21101 18.1311 4.40765 18.1311C3.60428 18.1311 2.95065 18.7847 2.95065 19.5881Z" fill="#F04086"/>
<path d="M17.2633 16.7212L17.2102 16.7742L17.2566 16.8205L17.3087 16.7808L17.2633 16.7212ZM14.2584 13.7163L14.1988 13.6709L14.159 13.723L14.2054 13.7693L14.2584 13.7163ZM14.6971 11.1194L14.6644 11.0519L14.6054 11.0805L14.6258 11.1428L14.6971 11.1194ZM17.7898 9.61995L17.8506 9.57599L17.8137 9.52501L17.7571 9.55246L17.7898 9.61995ZM17.4545 8.93039L17.4872 8.99788L17.5439 8.97038L17.5266 8.90977L17.4545 8.93039ZM14.3619 10.4298L14.2995 10.4714L14.3358 10.5258L14.3946 10.4973L14.3619 10.4298ZM12.3841 9.19006H12.3091V9.25557L12.374 9.26438L12.3841 9.19006ZM12.3841 8.17074L12.362 8.09908L12.3091 8.11539V8.17074H12.3841ZM11.6173 8.17074H11.6923V8.11538L11.6394 8.09907L11.6173 8.17074ZM11.6173 9.19006L11.6274 9.26438L11.6923 9.25557V9.19006H11.6173ZM10.285 9.74292L10.232 9.79595L10.2783 9.84229L10.3305 9.80258L10.285 9.74292ZM7.80648 7.26439L7.74734 7.21826L7.70657 7.27054L7.75345 7.31742L7.80648 7.26439ZM8.36267 4.50108L8.43504 4.48138L8.43504 4.48138L8.36267 4.50108ZM7.89203 4.23182L7.91172 4.30419L7.91177 4.30418L7.89203 4.23182ZM7.62277 4.70246L7.5504 4.72216L7.55041 4.72216L7.62277 4.70246ZM3.6483 7.01016L3.70133 6.95713L3.70133 6.95713L3.6483 7.01016ZM3.6483 3.64833L3.70133 3.70136L3.70133 3.70136L3.6483 3.64833ZM5.87521 3.01522L5.85807 3.08823L5.85809 3.08824L5.87521 3.01522ZM6.33611 2.72959L6.40913 2.74674L6.40913 2.74673L6.33611 2.72959ZM6.05048 2.26869L6.06764 2.19567L6.06762 2.19567L6.05048 2.26869ZM3.10595 3.10598L3.05292 3.05295L3.05292 3.05295L3.10595 3.10598ZM3.10595 7.55232L3.05291 7.60535L3.05292 7.60535L3.10595 7.55232ZM7.26394 7.80635L7.31698 7.75332L7.27003 7.70638L7.21774 7.74728L7.26394 7.80635ZM9.74266 10.2851L9.80233 10.3305L9.84204 10.2784L9.7957 10.232L9.74266 10.2851ZM13.7161 14.2585L13.7691 14.2054L13.7228 14.1591L13.6706 14.1988L13.7161 14.2585ZM16.721 17.2633L16.7806 17.3088L16.8203 17.2566L16.774 17.2103L16.721 17.2633ZM21.8161 18.9789L21.7411 18.9789V18.9789H21.8161ZM21.0493 18.979L21.1243 18.979V18.979H21.0493ZM7.9995 15.4538L8.05254 15.5069L7.9995 15.4538ZM5.68438 17.7689L5.64121 17.8303L5.69281 17.8666L5.73742 17.822L5.68438 17.7689ZM6.22666 18.3112L6.17363 18.2582L6.12901 18.3028L6.16533 18.3544L6.22666 18.3112ZM8.54174 15.9961L8.48871 15.9431L8.54174 15.9961ZM18.9788 16.0667C18.3175 16.0667 17.7072 16.2887 17.2178 16.6615L17.3087 16.7808C17.773 16.4272 18.3516 16.2167 18.9788 16.2167V16.0667ZM17.3163 16.6681L14.3114 13.6633L14.2054 13.7693L17.2102 16.7742L17.3163 16.6681ZM14.3181 13.7618C14.6908 13.2724 14.9129 12.662 14.9129 12.0007H14.7629C14.7629 12.6278 14.5524 13.2066 14.1988 13.6709L14.3181 13.7618ZM14.9129 12.0007C14.9129 11.6849 14.8617 11.381 14.7683 11.0961L14.6258 11.1428C14.7144 11.413 14.7629 11.7012 14.7629 12.0007H14.9129ZM14.7298 11.1869L17.8225 9.68743L17.7571 9.55246L14.6644 11.0519L14.7298 11.1869ZM17.729 9.6639C18.1468 10.2415 18.8261 10.6187 19.5924 10.6187V10.4687C18.8765 10.4687 18.2415 10.1165 17.8506 9.57599L17.729 9.6639ZM19.5924 10.6187C20.86 10.6187 21.8912 9.58751 21.8912 8.31991H21.7412C21.7412 9.50467 20.7771 10.4687 19.5924 10.4687V10.6187ZM21.8912 8.31991C21.8912 7.0523 20.86 6.0211 19.5924 6.0211V6.1711C20.7771 6.1711 21.7412 7.13514 21.7412 8.31991H21.8912ZM19.5924 6.0211C18.3248 6.0211 17.2936 7.0523 17.2936 8.31991H17.4436C17.4436 7.13514 18.4076 6.1711 19.5924 6.1711V6.0211ZM17.2936 8.31991C17.2936 8.53886 17.325 8.7504 17.3823 8.95101L17.5266 8.90977C17.4729 8.7221 17.4436 8.52443 17.4436 8.31991H17.2936ZM17.4217 8.86291L14.3292 10.3623L14.3946 10.4973L17.4872 8.99788L17.4217 8.86291ZM14.4243 10.3881C13.9709 9.70895 13.2398 9.23055 12.3942 9.11574L12.374 9.26438C13.1756 9.37321 13.8693 9.82681 14.2995 10.4714L14.4243 10.3881ZM12.4591 9.19006V8.17074H12.3091V9.19006H12.4591ZM12.4062 8.24241C12.9689 8.06886 13.3793 7.54406 13.3793 6.92477H13.2293C13.2293 7.47623 12.8638 7.94432 12.362 8.09908L12.4062 8.24241ZM13.3793 6.92477C13.3793 6.1645 12.7609 5.54616 12.0007 5.54616V5.69617C12.6781 5.69617 13.2293 6.24734 13.2293 6.92477H13.3793ZM12.0007 5.54616C11.2404 5.54616 10.6221 6.16454 10.6221 6.92477H10.7721C10.7721 6.24738 11.3233 5.69617 12.0007 5.69617V5.54616ZM10.6221 6.92477C10.6221 7.54413 11.0324 8.06894 11.5952 8.24242L11.6394 8.09907C11.1376 7.94439 10.7721 7.47631 10.7721 6.92477H10.6221ZM11.5423 8.17074V9.19006H11.6923V8.17074H11.5423ZM11.6072 9.11574C11.0979 9.18487 10.6301 9.38573 10.2396 9.68326L10.3305 9.80258C10.701 9.52033 11.1445 9.32992 11.6274 9.26438L11.6072 9.11574ZM10.338 9.68988L7.85952 7.21136L7.75345 7.31742L10.232 9.79595L10.338 9.68988ZM7.86562 7.31052C8.48436 6.51723 8.70309 5.46636 8.43504 4.48138L8.29031 4.52077C8.54582 5.45971 8.33731 6.46188 7.74734 7.21826L7.86562 7.31052ZM8.43504 4.48138C8.36853 4.23706 8.11658 4.09283 7.87229 4.15946L7.91177 4.30418C8.07601 4.25938 8.24554 4.35634 8.29031 4.52078L8.43504 4.48138ZM7.87234 4.15945C7.62802 4.22593 7.48393 4.47786 7.5504 4.72216L7.69514 4.68277C7.65041 4.51839 7.74736 4.34891 7.91172 4.30419L7.87234 4.15945ZM7.55041 4.72216C7.76616 5.51495 7.54128 6.36771 6.9639 6.95007L7.07042 7.05568C7.68555 6.43525 7.92495 5.52722 7.69514 4.68277L7.55041 4.72216ZM6.95067 6.96322C6.05261 7.85453 4.59675 7.85258 3.70133 6.95713L3.59526 7.0632C4.54914 8.01711 6.09967 8.01916 7.05634 7.06969L6.95067 6.96322ZM3.70133 6.95713C2.80375 6.05959 2.80375 4.59894 3.70133 3.70136L3.59526 3.5953C2.63911 4.55145 2.6391 6.10708 3.59527 7.0632L3.70133 6.95713ZM3.70133 3.70136C4.26912 3.13354 5.07502 2.90443 5.85807 3.08823L5.89235 2.9422C5.05886 2.74655 4.19983 2.99069 3.59526 3.5953L3.70133 3.70136ZM5.85809 3.08824C6.10439 3.146 6.35122 2.99327 6.40913 2.74674L6.2631 2.71244C6.22415 2.87827 6.05808 2.98107 5.89233 2.9422L5.85809 3.08824ZM6.40913 2.74673C6.46699 2.50026 6.31409 2.25357 6.06764 2.19567L6.03333 2.3417C6.19916 2.38066 6.30202 2.54664 6.2631 2.71245L6.40913 2.74673ZM6.06762 2.19567C4.9738 1.9389 3.84652 2.25939 3.05292 3.05295L3.15898 3.15902C3.91581 2.40222 4.98998 2.09677 6.03334 2.3417L6.06762 2.19567ZM3.05292 3.05295C1.79778 4.30808 1.79778 6.35018 3.05291 7.60535L3.15898 7.49929C1.96243 6.3027 1.96243 4.35557 3.15898 3.15901L3.05292 3.05295ZM3.05292 7.60535C3.68053 8.23297 4.50497 8.54671 5.3291 8.54671V8.39671C4.54299 8.39671 3.75725 8.09755 3.15898 7.49929L3.05292 7.60535ZM5.3291 8.54671C6.0298 8.54671 6.73015 8.31907 7.31015 7.86543L7.21774 7.74728C6.66496 8.17963 5.99739 8.39671 5.3291 8.39671V8.54671ZM7.21091 7.85939L9.68963 10.3381L9.7957 10.232L7.31698 7.75332L7.21091 7.85939ZM9.683 10.2396C9.31029 10.729 9.08828 11.3393 9.08828 12.0006H9.23828C9.23828 11.3735 9.44871 10.7948 9.80233 10.3305L9.683 10.2396ZM9.08828 12.0006C9.08828 13.6065 10.3946 14.9129 12.0006 14.9129V14.7629C10.4775 14.7629 9.23828 13.5237 9.23828 12.0006H9.08828ZM12.0006 14.9129C12.6619 14.9129 13.2722 14.6908 13.7615 14.3181L13.6706 14.1988C13.2064 14.5524 12.6278 14.7629 12.0006 14.7629V14.9129ZM13.663 14.3115L16.6679 17.3163L16.774 17.2103L13.7691 14.2054L13.663 14.3115ZM16.6613 17.2179C16.2885 17.7072 16.0665 18.3176 16.0665 18.9789H16.2165C16.2165 18.3517 16.427 17.773 16.7806 17.3088L16.6613 17.2179ZM16.0665 18.9789C16.0665 20.5848 17.3729 21.8912 18.9788 21.8912V21.7412C17.4557 21.7412 16.2165 20.502 16.2165 18.9789H16.0665ZM18.9788 21.8912C20.5847 21.8912 21.8911 20.5848 21.8911 18.9789H21.7411C21.7411 20.502 20.5019 21.7412 18.9788 21.7412V21.8912ZM21.8911 18.9789C21.8911 17.373 20.5847 16.0667 18.9788 16.0667V16.2167C20.5019 16.2167 21.7411 17.4559 21.7411 18.9789L21.8911 18.9789ZM19.5923 6.93784C20.3542 6.93784 20.9743 7.55789 20.9743 8.31983H21.1243C21.1243 7.47505 20.4371 6.78784 19.5923 6.78784V6.93784ZM20.9743 8.31983C20.9743 9.08177 20.3542 9.70181 19.5923 9.70181V9.85181C20.4371 9.85181 21.1243 9.16461 21.1243 8.31983H20.9743ZM19.5923 9.70181C18.8303 9.70181 18.2103 9.08177 18.2103 8.31983H18.0603C18.0603 9.16461 18.7475 9.85181 19.5923 9.85181V9.70181ZM18.2103 8.31983C18.2103 7.55785 18.8303 6.93784 19.5923 6.93784V6.78784C18.7475 6.78784 18.0603 7.47501 18.0603 8.31983H18.2103ZM11.5388 6.92462C11.5388 6.67005 11.746 6.46283 12.0006 6.46283V6.31283C11.6631 6.31283 11.3888 6.58722 11.3888 6.92462H11.5388ZM12.0006 6.46283C12.2551 6.46283 12.4623 6.67002 12.4623 6.92462H12.6123C12.6123 6.58717 12.338 6.31283 12.0006 6.31283V6.46283ZM12.4623 6.92462C12.4623 7.17918 12.2552 7.3864 12.0006 7.3864V7.53641C12.338 7.53641 12.6123 7.26202 12.6123 6.92462H12.4623ZM12.0006 7.3864C11.746 7.3864 11.5388 7.17921 11.5388 6.92462H11.3888C11.3888 7.26206 11.6632 7.53641 12.0006 7.53641V7.3864ZM12.0006 13.9961C10.9003 13.9961 10.0051 13.1009 10.0051 12.0006H9.85509C9.85509 13.1837 10.8175 14.1461 12.0006 14.1461V13.9961ZM10.0051 12.0006C10.0051 10.9004 10.9003 10.0052 12.0006 10.0052V9.85515C10.8175 9.85515 9.85509 10.8175 9.85509 12.0006H10.0051ZM12.0006 10.0052C13.1008 10.0052 13.996 10.9004 13.996 12.0006H14.146C14.146 10.8175 13.1837 9.85515 12.0006 9.85515V10.0052ZM13.996 12.0006C13.996 13.1008 13.1008 13.9961 12.0006 13.9961V14.1461C13.1837 14.1461 14.146 13.1837 14.146 12.0006H13.996ZM18.9788 20.9745C17.8786 20.9745 16.9834 20.0793 16.9834 18.979H16.8334C16.8334 20.1621 17.7957 21.1245 18.9788 21.1245V20.9745ZM16.9834 18.979C16.9834 17.8788 17.8786 16.9835 18.9788 16.9835V16.8335C17.7957 16.8335 16.8334 17.7959 16.8334 18.979H16.9834ZM18.9788 16.9835C20.0791 16.9835 20.9743 17.8788 20.9743 18.979H21.1243C21.1243 17.7959 20.1619 16.8335 18.9788 16.8335V16.9835ZM20.9743 18.979C20.9743 20.0793 20.0791 20.9745 18.9788 20.9745V21.1245C20.1619 21.1245 21.1243 20.1621 21.1243 18.979L20.9743 18.979ZM7.9644 4.21213L7.91614 4.03475L7.7714 4.07414L7.81966 4.25151L7.9644 4.21213ZM8.59477 15.4008C8.41575 15.2218 8.1255 15.2218 7.94647 15.4008L8.05254 15.5069C8.17298 15.3864 8.36826 15.3864 8.48871 15.5069L8.59477 15.4008ZM7.94647 15.4008L5.63135 17.7159L5.73742 17.822L8.05254 15.5069L7.94647 15.4008ZM5.72755 17.7076C5.35379 17.4445 4.89861 17.2893 4.40765 17.2893V17.4393C4.86648 17.4393 5.29171 17.5843 5.64121 17.8303L5.72755 17.7076ZM4.40765 17.2893C3.14003 17.2893 2.10882 18.3205 2.10882 19.5881H2.25882C2.25882 18.4033 3.22287 17.4393 4.40765 17.4393V17.2893ZM2.10882 19.5881C2.10882 20.8557 3.14003 21.8869 4.40765 21.8869V21.7369C3.22287 21.7369 2.25882 20.7729 2.25882 19.5881H2.10882ZM4.40765 21.8869C5.67526 21.8869 6.70647 20.8557 6.70647 19.5881H6.55647C6.55647 20.7729 5.59242 21.7369 4.40765 21.7369V21.8869ZM6.70647 19.5881C6.70647 19.0971 6.55117 18.6418 6.28798 18.268L6.16533 18.3544C6.41144 18.7039 6.55647 19.1292 6.55647 19.5881H6.70647ZM6.27969 18.3642L8.59477 16.0491L8.48871 15.9431L6.17363 18.2582L6.27969 18.3642ZM8.59477 16.0491C8.7738 15.8701 8.7738 15.5798 8.59477 15.4008L8.48871 15.5069C8.60916 15.6273 8.60916 15.8226 8.48871 15.9431L8.59477 16.0491ZM4.40765 20.9701C3.6457 20.9701 3.02565 20.35 3.02565 19.5881H2.87565C2.87565 20.4329 3.56286 21.1201 4.40765 21.1201V20.9701ZM3.02565 19.5881C3.02565 18.8262 3.6457 18.2061 4.40765 18.2061V18.0561C3.56286 18.0561 2.87565 18.7433 2.87565 19.5881H3.02565ZM4.40765 18.2061C5.16959 18.2061 5.78964 18.8262 5.78964 19.5881H5.93964C5.93964 18.7433 5.25243 18.0561 4.40765 18.0561V18.2061ZM5.78964 19.5881C5.78964 20.35 5.16959 20.9701 4.40765 20.9701V21.1201C5.25243 21.1201 5.93964 20.4329 5.93964 19.5881H5.78964ZM7.01716 7.00288L7.12069 7.11142L6.91363 6.89434L7.01716 7.00288ZM8.54005 4.45281L8.68478 4.41342L8.68478 4.41341L8.54005 4.45281ZM8.04851 7.24645L7.92585 7.16013L7.85324 7.26331L7.94245 7.35252L8.04851 7.24645ZM10.3045 9.5024L10.1984 9.60847L10.2862 9.69629L10.3889 9.62639L10.3045 9.5024ZM11.4334 9.03385L11.4615 9.1812L11.5834 9.15795V9.03385H11.4334ZM11.4334 8.2997H11.5834V8.19945L11.4908 8.1611L11.4334 8.2997ZM12.5679 8.29969L12.5105 8.16109L12.4179 8.19944V8.29969H12.5679ZM12.5679 9.03386H12.4179V9.15795L12.5398 9.1812L12.5679 9.03386ZM14.422 10.1964L14.3018 10.2861L14.376 10.3854L14.4874 10.3313L14.422 10.1964ZM17.2398 8.83019L17.3052 8.96516L17.4115 8.91364L17.3863 8.79825L17.2398 8.83019ZM17.7358 9.85043L17.8515 9.75493L17.7764 9.66404L17.6703 9.71546L17.7358 9.85043ZM14.9179 11.2166L14.8524 11.0817L14.7407 11.1358L14.7731 11.2557L14.9179 11.2166ZM14.4989 13.6969L14.375 13.6124L14.305 13.7151L14.3929 13.8029L14.4989 13.6969ZM17.2827 16.4806L17.1766 16.5867L17.2645 16.6745L17.3672 16.6046L17.2827 16.4806ZM21.9999 18.9789L21.8499 18.9789V18.9789H21.9999ZM16.4804 17.2828L16.6044 17.3672L16.6743 17.2645L16.5865 17.1767L16.4804 17.2828ZM13.6966 14.499L13.8027 14.3929L13.7148 14.3051L13.6122 14.375L13.6966 14.499ZM9.50215 10.3045L9.62613 10.389L9.69605 10.2863L9.60821 10.1985L9.50215 10.3045ZM7.24617 8.04855L7.35223 7.94248L7.26289 7.85314L7.15966 7.926L7.24617 8.04855ZM2.97597 7.68231L2.8699 7.78837L2.8699 7.78837L2.97597 7.68231ZM2.97597 2.976L2.8699 2.86993L2.8699 2.86993L2.97597 2.976ZM6.09249 2.08973L6.1268 1.9437L6.12677 1.9437L6.09249 2.08973ZM6.51507 2.7716L6.6611 2.8059L6.6611 2.80588L6.51507 2.7716ZM5.83324 3.19419L5.79896 3.34022L5.79899 3.34023L5.83324 3.19419ZM3.77828 3.77831L3.88435 3.88438L3.88435 3.88437L3.77828 3.77831ZM3.77828 6.88018L3.88435 6.77411L3.88434 6.77411L3.77828 6.88018ZM6.87012 6.88983L6.97576 6.9968L6.98239 6.98931L6.87012 6.88983ZM6.87183 6.88791L6.7607 6.78714L6.75956 6.78843L6.87183 6.88791ZM6.87958 6.87976L6.77352 6.77369L6.77351 6.77369L6.87958 6.87976ZM6.888 6.87175L6.78855 6.75945L6.78728 6.7606L6.888 6.87175ZM6.89042 6.86961L6.9901 6.98216L6.9972 6.97495L6.89042 6.86961ZM7.4454 4.75074L7.30066 4.79012L7.30066 4.79012L7.4454 4.75074ZM7.01297 7.0066L7.11155 7.11966L7.11155 7.11966L7.01297 7.0066ZM7.00614 7.0135L7.11943 7.11181L7.11945 7.11179L7.00614 7.0135ZM20.8655 18.979L21.0155 18.979V18.979H20.8655ZM8.67172 15.3239L8.56566 15.4299L8.67172 15.3239ZM7.86952 15.3239L7.76346 15.2178L7.86952 15.3239ZM8.67172 16.1261L8.56566 16.02L8.67172 16.1261ZM6.46242 18.3354L6.35635 18.2293L6.27278 18.3129L6.33448 18.4137L6.46242 18.3354ZM5.66016 17.5332L5.58187 17.6612L5.68266 17.7228L5.76622 17.6393L5.66016 17.5332ZM6.91362 6.89434C6.91483 6.89319 6.9157 6.89242 6.9159 6.89224C6.9159 6.89224 6.91607 6.89209 6.91496 6.89305C6.91361 6.89423 6.9088 6.89837 6.9035 6.90368L7.11563 7.11581C7.11278 7.11866 7.11052 7.12056 7.11173 7.11951C7.1119 7.11936 7.11335 7.11811 7.11463 7.11698C7.1161 7.11568 7.11824 7.11376 7.12069 7.11142L6.91362 6.89434ZM6.9035 6.90368C6.89838 6.9088 6.89438 6.91343 6.8933 6.91468C6.89313 6.91487 6.89296 6.91507 6.89285 6.9152C6.89272 6.91535 6.89264 6.91544 6.89257 6.91552C6.89242 6.91568 6.89244 6.91566 6.89253 6.91556C6.8927 6.91537 6.89347 6.9145 6.89461 6.91329L7.1124 7.11961C7.11457 7.11732 7.11635 7.11533 7.11751 7.11401C7.11849 7.1129 7.11967 7.11154 7.11971 7.11149C7.1206 7.11047 7.1186 7.11284 7.11563 7.11581L6.9035 6.90368ZM8.17119 7.33278C8.7614 6.49407 8.95928 5.42212 8.68478 4.41342L8.39531 4.4922C8.64605 5.41357 8.46532 6.39352 7.92585 7.16013L8.17119 7.33278ZM10.4105 9.39634L8.15458 7.14039L7.94245 7.35252L10.1984 9.60847L10.4105 9.39634ZM11.4053 8.88651C10.9727 8.969 10.5711 9.13939 10.22 9.37841L10.3889 9.62639C10.7068 9.40996 11.0702 9.25582 11.4615 9.1812L11.4053 8.88651ZM11.2834 8.2997V9.03385H11.5834V8.2997H11.2834ZM10.3632 6.92477C10.3632 7.60771 10.7828 8.19275 11.3761 8.4383L11.4908 8.1611C11.0054 7.96019 10.6632 7.48175 10.6632 6.92477H10.3632ZM12.0007 5.28734C11.0975 5.28734 10.3632 6.02159 10.3632 6.92477H10.6632C10.6632 6.18728 11.2632 5.58734 12.0007 5.58734V5.28734ZM13.6381 6.92477C13.6381 6.02155 12.9038 5.28734 12.0007 5.28734V5.58734C12.7382 5.58734 13.3381 6.18724 13.3381 6.92477H13.6381ZM12.6253 8.43828C13.2185 8.19268 13.6381 7.60766 13.6381 6.92477H13.3381C13.3381 7.48169 12.996 7.96012 12.5105 8.16109L12.6253 8.43828ZM12.7179 9.03386V8.29969H12.4179V9.03386H12.7179ZM14.5422 10.1066C14.0774 9.48444 13.3891 9.03779 12.596 8.88651L12.5398 9.1812C13.2571 9.31802 13.8805 9.72219 14.3018 10.2861L14.5422 10.1066ZM17.1743 8.69522L14.3565 10.0614L14.4874 10.3313L17.3052 8.96516L17.1743 8.69522ZM17.0347 8.3199C17.0347 8.50612 17.0551 8.68748 17.0932 8.86213L17.3863 8.79825C17.3527 8.64408 17.3347 8.48412 17.3347 8.3199H17.0347ZM19.5924 5.76228C18.1818 5.76228 17.0347 6.90935 17.0347 8.3199H17.3347C17.3347 7.07504 18.3475 6.06228 19.5924 6.06228V5.76228ZM22.15 8.3199C22.15 6.90935 21.0029 5.76228 19.5924 5.76228V6.06228C20.8372 6.06228 21.85 7.07504 21.85 8.3199H22.15ZM19.5924 10.8775C21.0029 10.8775 22.15 9.73046 22.15 8.3199H21.85C21.85 9.56477 20.8372 10.5775 19.5924 10.5775V10.8775ZM17.6201 9.94593C18.0887 10.5135 18.7983 10.8775 19.5924 10.8775V10.5775C18.8921 10.5775 18.2658 10.2568 17.8515 9.75493L17.6201 9.94593ZM14.9833 11.3516L17.8012 9.98541L17.6703 9.71546L14.8524 11.0817L14.9833 11.3516ZM15.1717 12.0007C15.1717 11.716 15.1335 11.4401 15.0627 11.1776L14.7731 11.2557C14.8372 11.4933 14.8717 11.743 14.8717 12.0007H15.1717ZM14.6229 13.7813C14.9687 13.2736 15.1717 12.6602 15.1717 12.0007H14.8717C14.8717 12.5978 14.6881 13.1527 14.375 13.6124L14.6229 13.7813ZM17.3888 16.3746L14.605 13.5908L14.3929 13.8029L17.1766 16.5867L17.3888 16.3746ZM18.9788 15.8079C18.3193 15.8079 17.706 16.0108 17.1983 16.3567L17.3672 16.6046C17.8269 16.2915 18.3817 16.1079 18.9788 16.1079V15.8079ZM22.1499 18.9789C22.15 17.2301 20.7277 15.8079 18.9788 15.8079V16.1079C20.562 16.1079 21.85 17.3958 21.8499 18.9789L22.1499 18.9789ZM18.9788 22.15C20.7277 22.15 22.1499 20.7278 22.1499 18.9789H21.8499C21.8499 20.5621 20.562 21.85 18.9788 21.85V22.15ZM15.8077 18.9789C15.8077 20.7278 17.2299 22.15 18.9788 22.15V21.85C17.3956 21.85 16.1077 20.5621 16.1077 18.9789H15.8077ZM16.3565 17.1983C16.0106 17.706 15.8077 18.3194 15.8077 18.9789H16.1077C16.1077 18.3818 16.2913 17.827 16.6044 17.3672L16.3565 17.1983ZM13.5906 14.6051L16.3744 17.3888L16.5865 17.1767L13.8027 14.3929L13.5906 14.6051ZM12.0006 15.1717C12.6601 15.1717 13.2734 14.9687 13.7811 14.623L13.6122 14.375C13.1525 14.6881 12.5977 14.8717 12.0006 14.8717V15.1717ZM8.82945 12.0006C8.82945 13.7494 10.2517 15.1717 12.0006 15.1717V14.8717C10.4174 14.8717 9.12945 13.5838 9.12945 12.0006H8.82945ZM9.37817 10.2201C9.0324 10.7278 8.82945 11.3411 8.82945 12.0006H9.12945C9.12945 11.4035 9.313 10.8487 9.62613 10.389L9.37817 10.2201ZM7.1401 8.15461L9.39608 10.4106L9.60821 10.1985L7.35223 7.94248L7.1401 8.15461ZM5.3291 8.80554C6.03142 8.80554 6.73396 8.59372 7.33267 8.17109L7.15966 7.926C6.61302 8.31189 5.97126 8.50554 5.3291 8.50554V8.80554ZM2.8699 7.78837C3.54817 8.46664 4.43937 8.80554 5.3291 8.80554V8.50554C4.5154 8.50554 3.70159 8.19579 3.08203 7.57624L2.8699 7.78837ZM2.8699 2.86993C1.51369 4.22614 1.51369 6.43213 2.8699 7.78837L3.08203 7.57624C1.84298 6.33715 1.84298 4.32112 3.08203 3.08206L2.8699 2.86993ZM6.12677 1.9437C4.94588 1.66648 3.72695 2.01292 2.8699 2.86993L3.08203 3.08207C3.86554 2.2986 4.97824 1.98223 6.05821 2.23576L6.12677 1.9437ZM6.6611 2.80588C6.75164 2.42022 6.51234 2.03428 6.1268 1.9437L6.05819 2.23575C6.28252 2.28845 6.4217 2.513 6.36904 2.73732L6.6611 2.80588ZM5.79899 3.34023C6.1843 3.43059 6.57048 3.19168 6.6611 2.8059L6.36905 2.7373C6.31634 2.96168 6.09168 3.10073 5.86749 3.04815L5.79899 3.34023ZM3.88435 3.88437C4.38866 3.38003 5.10295 3.17684 5.79896 3.34022L5.86752 3.04816C5.07063 2.8611 4.2501 3.09433 3.67221 3.67225L3.88435 3.88437ZM3.88434 6.77411C3.08785 5.97765 3.08784 4.68088 3.88435 3.88438L3.67222 3.67224C2.75856 4.5859 2.75855 6.07263 3.67221 6.98625L3.88434 6.77411ZM6.76472 6.78311C5.96749 7.57045 4.67768 7.56748 3.88435 6.77411L3.67221 6.98624C4.58229 7.89636 6.06103 7.89971 6.97552 6.99656L6.76472 6.78311ZM6.75956 6.78843L6.75785 6.79035L6.98239 6.98931L6.98409 6.98739L6.75956 6.78843ZM6.77351 6.77369C6.76813 6.77908 6.76377 6.78377 6.7607 6.78715L6.98295 6.98867C6.98371 6.98783 6.98461 6.98686 6.98565 6.98582L6.77351 6.77369ZM6.78728 6.7606C6.78378 6.76376 6.77899 6.76821 6.77352 6.77369L6.98564 6.98583C6.98676 6.98472 6.98781 6.98373 6.98873 6.9829L6.78728 6.7606ZM6.79097 6.75731L6.78855 6.75946L6.98745 6.98404L6.98987 6.9819L6.79097 6.75731ZM7.30066 4.79012C7.49172 5.49217 7.29328 6.24767 6.78364 6.76426L6.9972 6.97495C7.58194 6.38224 7.80924 5.51646 7.59014 4.71135L7.30066 4.79012ZM7.80439 3.90971C7.42208 4.01373 7.19668 4.40795 7.30066 4.79012L7.59014 4.71135C7.52963 4.48899 7.66079 4.25969 7.88315 4.19918L7.80439 3.90971ZM7.80412 3.90978C7.80411 3.90978 7.80412 3.90978 7.80411 3.90978C7.80411 3.90978 7.80411 3.90978 7.80411 3.90978C7.80411 3.90978 7.80411 3.90978 7.80411 3.90978C7.80411 3.90978 7.80411 3.90978 7.80411 3.90978C7.80411 3.90978 7.80411 3.90978 7.80411 3.90978C7.80411 3.90978 7.80411 3.90978 7.80411 3.90978C7.98842 4.0148 7.8834 4.19911 7.8834 4.19911H7.8834C7.8834 4.19911 7.8834 4.19911 7.88341 4.19911C7.88341 4.19911 7.88341 4.19911 7.88341 4.19911C7.88341 4.19911 7.88341 4.19911 7.88341 4.19911C7.88341 4.19911 7.88341 4.19911 7.88341 4.19911C7.88341 4.19911 7.88341 4.19911 7.88341 4.19911L7.88341 4.19911C7.88341 4.19911 7.88341 4.19911 7.88341 4.19911L7.88341 4.19911C7.88341 4.19911 7.88341 4.19911 7.88341 4.19911C7.88341 4.19911 7.88341 4.19911 7.88341 4.19911C7.88341 4.19911 7.88341 4.19911 7.88341 4.19911C7.88341 4.19911 7.88341 4.19911 7.88341 4.19911C7.88342 4.19911 7.88341 4.19911 7.88342 4.19911C7.88342 4.19911 7.88342 4.19911 7.88342 4.19911C7.88342 4.19911 7.88342 4.19911 7.88342 4.19911C7.88342 4.19911 7.98844 4.0148 7.80413 3.90978C7.80413 3.90978 7.80413 3.90978 7.80413 3.90978C7.80413 3.90978 7.80413 3.90978 7.80413 3.90978C7.80413 3.90978 7.80413 3.90978 7.80413 3.90978C7.80413 3.90978 7.80413 3.90978 7.80412 3.90978L7.88341 4.19911C7.88342 4.19911 7.88341 4.19911 7.88342 4.19911C7.88342 4.19911 7.88342 4.19911 7.88342 4.19911C7.88342 4.19911 7.88342 4.19911 7.88342 4.19911C7.88342 4.19911 7.88342 4.19911 7.88342 4.19911C7.69911 4.09409 7.80413 3.90978 7.80413 3.90978H7.80413C7.80413 3.90978 7.80413 3.90978 7.80413 3.90978C7.80413 3.90978 7.80412 3.90978 7.80412 3.90978C7.80412 3.90978 7.80412 3.90978 7.80412 3.90978C7.80411 3.90978 7.80411 3.90978 7.80411 3.90978C7.80411 3.90978 7.80411 3.90978 7.80411 3.90978C7.80411 3.90978 7.80411 3.90978 7.80411 3.90978C7.80411 3.90978 7.80411 3.90978 7.80411 3.90978C7.80411 3.90978 7.80411 3.90978 7.80411 3.90978C7.80411 3.90978 7.69909 4.09409 7.8834 4.19911C7.8834 4.19911 7.8834 4.19911 7.8834 4.19911C7.88341 4.19911 7.8834 4.19911 7.88341 4.19911L7.80412 3.90978ZM8.68478 4.41341C8.58077 4.03133 8.18668 3.80551 7.80432 3.90972L7.88321 4.19917C8.10548 4.13859 8.33478 4.26983 8.39532 4.49221L8.68478 4.41341ZM6.91363 6.89434C6.91493 6.89309 6.91585 6.89228 6.91594 6.8922C6.91599 6.89216 6.91595 6.89219 6.91567 6.89244C6.91551 6.89258 6.91489 6.89311 6.9144 6.89355L7.11155 7.11966C7.11176 7.11948 7.11185 7.11941 7.11238 7.11894C7.1128 7.11858 7.11347 7.118 7.11421 7.11734C7.1157 7.11603 7.11802 7.11397 7.12069 7.11142L6.91363 6.89434ZM6.9144 6.89355C6.91271 6.89502 6.90838 6.89879 6.9035 6.90368L7.11563 7.11581C7.11296 7.11847 7.11093 7.1202 7.11155 7.11966L6.9144 6.89355ZM6.9035 6.90368C6.89792 6.90926 6.89339 6.91457 6.89284 6.91521L7.11945 7.11179C7.12014 7.11099 7.11983 7.11137 7.11935 7.1119C7.11877 7.11254 7.11746 7.11398 7.11563 7.11581L6.9035 6.90368ZM6.89286 6.91518C6.89166 6.91656 6.89291 6.91509 6.89461 6.91329L7.1124 7.11962C7.11592 7.11589 7.11889 7.11243 7.11943 7.11181L6.89286 6.91518ZM19.5923 7.19667C20.2113 7.19667 20.7155 7.70084 20.7155 8.31983H21.0155C21.0155 7.53515 20.377 6.89667 19.5923 6.89667V7.19667ZM18.4691 8.31983C18.4691 7.7008 18.9733 7.19667 19.5923 7.19667V6.89667C18.8076 6.89667 18.1691 7.53511 18.1691 8.31983H18.4691ZM19.5923 9.44299C18.9733 9.44299 18.4691 8.93882 18.4691 8.31983H18.1691C18.1691 9.10451 18.8076 9.74299 19.5923 9.74299V9.44299ZM20.7155 8.31983C20.7155 8.93882 20.2113 9.44299 19.5923 9.44299V9.74299C20.377 9.74299 21.0155 9.10451 21.0155 8.31983H20.7155ZM11.7976 6.92462C11.7976 6.81299 11.8889 6.72166 12.0006 6.72166V6.42166C11.7232 6.42166 11.4976 6.64731 11.4976 6.92462H11.7976ZM12.0006 7.12758C11.8889 7.12758 11.7976 7.03626 11.7976 6.92462H11.4976C11.4976 7.20195 11.7233 7.42758 12.0006 7.42758V7.12758ZM12.2035 6.92462C12.2035 7.03625 12.1122 7.12758 12.0006 7.12758V7.42758C12.2779 7.42758 12.5035 7.20192 12.5035 6.92462H12.2035ZM12.0006 6.72166C12.1122 6.72166 12.2035 6.81298 12.2035 6.92462H12.5035C12.5035 6.64728 12.2779 6.42166 12.0006 6.42166V6.72166ZM12.0006 13.7373C11.0432 13.7373 10.2639 12.9579 10.2639 12.0006H9.96392C9.96392 13.1236 10.8776 14.0373 12.0006 14.0373V13.7373ZM13.7372 12.0006C13.7372 12.9579 12.9579 13.7373 12.0006 13.7373V14.0373C13.1236 14.0373 14.0372 13.1236 14.0372 12.0006H13.7372ZM12.0006 10.264C12.9579 10.264 13.7372 11.0433 13.7372 12.0006H14.0372C14.0372 10.8776 13.1236 9.96398 12.0006 9.96398V10.264ZM10.2639 12.0006C10.2639 11.0433 11.0432 10.264 12.0006 10.264V9.96398C10.8776 9.96398 9.96392 10.8776 9.96392 12.0006H10.2639ZM18.9788 20.7156C18.0215 20.7156 17.2422 19.9363 17.2422 18.979H16.9422C16.9422 20.102 17.8559 21.0156 18.9788 21.0156V20.7156ZM20.7155 18.979C20.7155 19.9363 19.9361 20.7156 18.9788 20.7156V21.0156C20.1018 21.0156 21.0155 20.102 21.0155 18.979L20.7155 18.979ZM18.9788 17.2424C19.9362 17.2424 20.7155 18.0217 20.7155 18.979H21.0155C21.0155 17.856 20.1018 16.9424 18.9788 16.9424V17.2424ZM17.2422 18.979C17.2422 18.0217 18.0215 17.2424 18.9788 17.2424V16.9424C17.8559 16.9424 16.9422 17.856 16.9422 18.979H17.2422ZM8.77779 15.2178C8.49769 14.9377 8.04356 14.9377 7.76346 15.2178L7.97559 15.4299C8.13853 15.267 8.40271 15.267 8.56566 15.4299L8.77779 15.2178ZM8.77779 16.2322C9.05789 15.9521 9.05789 15.4979 8.77779 15.2178L8.56566 15.4299C8.7286 15.5929 8.7286 15.8571 8.56566 16.02L8.77779 16.2322ZM6.56848 18.4415L8.77779 16.2322L8.56566 16.02L6.35635 18.2293L6.56848 18.4415ZM6.96529 19.5881C6.96529 19.1008 6.82773 18.6449 6.59035 18.2571L6.33448 18.4137C6.54402 18.756 6.66529 19.158 6.66529 19.5881H6.96529ZM4.40765 22.1457C5.81821 22.1457 6.96529 20.9987 6.96529 19.5881H6.66529C6.66529 20.833 5.65252 21.8457 4.40765 21.8457V22.1457ZM1.85 19.5881C1.85 20.9987 2.99708 22.1457 4.40765 22.1457V21.8457C3.16277 21.8457 2.15 20.833 2.15 19.5881H1.85ZM4.40765 17.0305C2.99708 17.0305 1.85 18.1775 1.85 19.5881H2.15C2.15 18.3432 3.16277 17.3305 4.40765 17.3305V17.0305ZM5.73845 17.4053C5.35071 17.168 4.89485 17.0305 4.40765 17.0305V17.3305C4.83766 17.3305 5.23959 17.4517 5.58187 17.6612L5.73845 17.4053ZM7.76346 15.2178L5.55409 17.4271L5.76622 17.6393L7.97559 15.4299L7.76346 15.2178ZM4.40765 20.7113C3.78864 20.7113 3.28447 20.2071 3.28447 19.5881H2.98447C2.98447 20.3728 3.62296 21.0113 4.40765 21.0113V20.7113ZM5.53082 19.5881C5.53082 20.2071 5.02665 20.7113 4.40765 20.7113V21.0113C5.19233 21.0113 5.83082 20.3728 5.83082 19.5881H5.53082ZM4.40765 18.4649C5.02665 18.4649 5.53082 18.9691 5.53082 19.5881H5.83082C5.83082 18.8034 5.19233 18.1649 4.40765 18.1649V18.4649ZM3.28447 19.5881C3.28447 18.9691 3.78864 18.4649 4.40765 18.4649V18.1649C3.62296 18.1649 2.98447 18.8034 2.98447 19.5881H3.28447Z" fill="#F04086" mask="url(#path-2-outside-1)"/>
<path d="M9.45252 14.5413C9.38119 14.47 9.28225 14.429 9.18143 14.429C9.08061 14.429 8.98163 14.47 8.91034 14.5413C8.83901 14.6126 8.79797 14.7115 8.79797 14.8123C8.79797 14.9131 8.83901 15.0121 8.91034 15.0834C8.98167 15.1547 9.08061 15.1957 9.18143 15.1957C9.28229 15.1957 9.38123 15.1547 9.45252 15.0834C9.52385 15.0121 9.56489 14.9131 9.56489 14.8123C9.56489 14.7115 9.52381 14.6126 9.45252 14.5413Z" fill="#F04086"/>
</svg>
