<svg width="33" height="28" viewBox="0 0 33 28" fill="none" xmlns="http://www.w3.org/2000/svg">
<g clip-path="url(#clip0)">
<path d="M9.65876 16.1944H17.473C18.1743 16.1944 18.7516 16.7717 18.7516 17.473C18.7516 18.1743 18.1743 18.7514 17.473 18.7514H12.9556C12.5816 18.7514 12.2737 19.0593 12.2737 19.4333C12.2737 19.8074 12.5816 20.1152 12.9556 20.1152H17.473C18.9227 20.1152 20.1153 18.9226 20.1153 17.473C20.1153 16.0233 18.9227 14.8307 17.473 14.8307H9.37578C9.19543 14.8313 9.02223 14.904 8.89506 15.0319L5.963 17.9604C5.83446 17.8142 5.64968 17.73 5.455 17.7286H0.681875C0.307867 17.7286 0 18.0365 0 18.4105V26.593C0 26.9671 0.307867 27.2749 0.681875 27.2749H5.455C5.829 27.2749 6.13687 26.9671 6.13687 26.593V19.7163L9.65876 16.1944ZM4.77312 25.9111H1.36375V19.0924H4.77312V25.9111Z" fill="#2FFF5D"/>
<path d="M31.0833 15.1171L30.9094 14.9432C30.3979 14.4311 29.7032 14.1434 28.9796 14.1434C28.2562 14.1434 27.5613 14.4311 27.05 14.9432L21.878 20.1152H19.7743C19.4003 20.1152 19.0924 20.4231 19.0924 20.7971C19.0924 21.1711 19.4003 21.479 19.7743 21.479H22.1609C22.3413 21.4783 22.5145 21.4057 22.6417 21.2779L28.0149 15.9081C28.2705 15.6521 28.618 15.5082 28.9796 15.5082C29.3414 15.5082 29.6888 15.6521 29.9445 15.9081L30.1184 16.082C30.3745 16.3377 30.5184 16.6851 30.5184 17.0468C30.5184 17.4086 30.3745 17.756 30.1184 18.0117L23.5008 24.6292C23.1193 25.0152 22.598 25.2314 22.0553 25.2293H7.84154C7.46754 25.2293 7.15967 25.5372 7.15967 25.9112C7.15967 26.2852 7.46754 26.5931 7.84154 26.5931H22.0553C22.9594 26.5955 23.8281 26.2354 24.4656 25.5941L31.0833 18.9766C31.5953 18.4651 31.8831 17.7704 31.8831 17.0468C31.8831 16.3234 31.5953 15.6285 31.0833 15.1171Z" fill="#2FFF5D"/>
<path d="M3.06835 22.1609C2.69434 22.1609 2.38647 22.4688 2.38647 22.8428V23.5246C2.38647 23.8986 2.69434 24.2065 3.06835 24.2065C3.44236 24.2065 3.75022 23.8986 3.75022 23.5246V22.8428C3.75022 22.4688 3.44236 22.1609 3.06835 22.1609Z" fill="#2FFF5D"/>
<path d="M21.4792 12.9556C25.0326 12.9556 27.957 10.0314 27.957 6.47781C27.957 2.92422 25.0326 0 21.4792 0C17.9255 0 15.0013 2.92422 15.0013 6.47781C15.0013 10.0314 17.9255 12.9556 21.4792 12.9556ZM21.4792 1.36375C24.2847 1.36375 26.5932 3.67224 26.5932 6.47781C26.5932 9.28338 24.2847 11.5919 21.4792 11.5919C18.6735 11.5919 16.3651 9.28338 16.3651 6.47781C16.3651 3.67224 18.6735 1.36375 21.4792 1.36375Z" fill="#2FFF5D"/>
<path d="M21.1381 7.15985H21.8199C22.0071 7.15985 22.1609 7.31361 22.1609 7.50079C22.1609 7.68796 22.0071 7.84172 21.8199 7.84172H20.4562C20.0821 7.84172 19.7743 8.14959 19.7743 8.5236C19.7743 8.8976 20.0821 9.20547 20.4562 9.20547H20.7971V9.54641C20.7971 9.92042 21.1049 10.2283 21.479 10.2283C21.853 10.2283 22.1609 9.92042 22.1609 9.54641V9.17138C22.9525 9.0108 23.5263 8.30847 23.5263 7.50079C23.5263 6.56559 22.7568 5.7961 21.8216 5.7961C21.8209 5.7961 21.8206 5.7961 21.8199 5.7961H21.1381C20.9509 5.7961 20.7971 5.64233 20.7971 5.45516C20.7971 5.26799 20.9509 5.11422 21.1381 5.11422H22.5018C22.8758 5.11422 23.1837 4.80635 23.1837 4.43235C23.1837 4.05834 22.8758 3.75047 22.5018 3.75047H22.1609V3.40954C22.1609 3.03553 21.853 2.72766 21.479 2.72766C21.1049 2.72766 20.7971 3.03553 20.7971 3.40954V3.78457C20.0054 3.94515 19.4316 4.64748 19.4316 5.45516C19.4316 6.39036 20.2011 7.15985 21.1363 7.15985C21.137 7.15985 21.1373 7.15985 21.1381 7.15985Z" fill="#2FFF5D"/>
</g>
<defs>
<clipPath id="clip0">
<rect width="32.73" height="27.275" fill="white"/>
</clipPath>
</defs>
</svg>
