<svg width="16" height="16" viewBox="0 0 16 16" fill="none" xmlns="http://www.w3.org/2000/svg">
<path fill-rule="evenodd" clip-rule="evenodd" d="M1.33337 10.9057L1.33337 5.09397C1.33337 2.83311 2.94448 1.33317 5.26215 1.33317L10.7379 1.33317C13.0556 1.33317 14.6667 2.83311 14.6667 5.09397L14.6667 10.9057C14.6667 13.1666 13.0556 14.6665 10.7379 14.6665L5.26215 14.6665C2.94664 14.6665 1.33337 13.1626 1.33337 10.9057ZM2.26355 5.09394L2.26355 10.9057C2.26355 12.6337 3.44632 13.7362 5.2621 13.7362L10.7379 13.7362C12.5561 13.7362 13.7364 12.6373 13.7364 10.9057L13.7364 5.09394C13.7364 3.36229 12.5561 2.26337 10.7379 2.26337L5.2621 2.26337C3.4439 2.26337 2.26355 3.36229 2.26355 5.09394Z" fill="#B4B8D7"/>
<path fill-rule="evenodd" clip-rule="evenodd" d="M4.0644 10.1099C3.9661 10.2419 3.97702 10.4296 4.09717 10.5492L5.93548 12.379L5.9733 12.4115C6.10528 12.509 6.29222 12.4977 6.41143 12.3779L6.44393 12.3401C6.54138 12.2081 6.53009 12.0212 6.41033 11.902L5.14955 10.6472L10.4456 10.6472L10.4913 10.6442C10.6556 10.6219 10.7822 10.4811 10.7822 10.3107C10.7822 10.1248 10.6315 9.97415 10.4456 9.97415L5.14965 9.97415L6.41033 8.71936L6.443 8.68169C6.54107 8.55016 6.53064 8.36317 6.41143 8.24341C6.2803 8.11168 6.06721 8.11118 5.93548 8.24231L4.09717 10.0721L4.09494 10.0747C4.085 10.0848 4.07569 10.0956 4.06708 10.1069L4.0644 10.1099ZM5.50679 5.52202C5.34252 5.5443 5.21591 5.68511 5.21591 5.85549C5.21591 6.04136 5.36659 6.19204 5.55246 6.19204L10.8483 6.19204L9.58779 7.44683L9.55512 7.4845C9.45705 7.61603 9.46748 7.80303 9.58669 7.92278C9.71782 8.05452 9.93091 8.05501 10.0626 7.92388L11.901 6.09405L11.9034 6.09126C11.9132 6.08129 11.9223 6.07071 11.9308 6.05958L11.9337 6.05625C12.032 5.92428 12.0211 5.7366 11.901 5.617L10.0626 3.78717L10.0248 3.75467C9.89284 3.65722 9.7059 3.66851 9.58669 3.78827C9.45556 3.92 9.45605 4.13309 9.58779 4.26422L10.8479 5.51894L5.55246 5.51894L5.50679 5.52202Z" fill="#B4B8D7"/>
</svg>
