<svg width="34" height="34" viewBox="0 0 34 34" fill="none" xmlns="http://www.w3.org/2000/svg">
<path fill-rule="evenodd" clip-rule="evenodd" d="M7.78398 0.336373L7.82835 0.339237C8.70151 0.411607 9.45986 0.845523 10.1521 1.52191C11.4677 2.8068 14.2927 6.55627 14.506 7.57667C14.742 8.71502 14.4896 9.45436 13.7373 10.7622L13.5549 11.0846C13.2097 11.7151 13.1569 11.9755 13.2638 12.2737C14.9065 16.294 17.7097 19.0968 21.6842 20.7201C22.0606 20.8564 22.3448 20.7783 23.1402 20.322L23.5553 20.0872C24.6735 19.4739 25.3823 19.28 26.4274 19.4977C27.4443 19.7107 31.1959 22.5375 32.4788 23.8514C33.1543 24.543 33.5892 25.3028 33.6649 26.2334C33.7447 28.4954 30.9846 31.6804 29.3008 32.6381C27.386 34.0078 24.9561 33.9851 22.2315 32.717C15.1067 29.7522 4.20826 18.9234 1.30389 11.8074L1.13003 11.4093C0.0272047 8.77347 0.0511011 6.49626 1.31489 4.77946C2.46805 2.86977 5.57716 0.23431 7.78398 0.336373ZM7.64928 2.77358L7.50235 2.78112C6.36969 2.93159 4.09829 4.88709 3.34187 6.13087L3.21119 6.32533C2.55955 7.38704 2.63507 8.84509 3.54232 10.8415L3.7157 11.2473C6.64158 17.814 16.7721 27.8039 23.2138 30.4855L23.5687 30.6433C25.4324 31.4333 26.8432 31.3982 27.9855 30.5883L28.07 30.534C28.4234 30.2884 29.2385 29.5478 29.8663 28.8234C30.7481 27.8058 31.2476 26.8735 31.2314 26.3773C31.2138 26.165 31.05 25.8788 30.7344 25.5557C29.7807 24.5789 26.3122 21.9654 25.9289 21.8851C25.5664 21.8096 25.2688 21.9111 24.4553 22.3791L24.046 22.609C22.8473 23.2555 22.0023 23.4292 20.8084 22.9958C16.1818 21.1074 12.8971 17.8233 10.9887 13.15C10.5367 11.9005 10.78 11.0164 11.5661 9.64636L11.7534 9.31684C12.1105 8.67205 12.1861 8.39849 12.1188 8.07397C12.0382 7.68853 9.42641 4.22199 8.44838 3.26677C8.12452 2.95034 7.83995 2.78752 7.62697 2.76987L7.64928 2.77358Z" fill="#F04086"/>
</svg>
