<svg width="130" height="50" viewBox="0 0 130 50" fill="none" xmlns="http://www.w3.org/2000/svg">
<rect width="130" height="50" rx="8" fill="#1877F2"/>
<path d="M57.7471 26.7822H53.7412V31H52.0117V21.0469H58.335V22.4414H53.7412V25.4014H57.7471V26.7822ZM63.7354 31C63.6624 30.8587 63.5986 30.6286 63.5439 30.3096C63.0153 30.861 62.3682 31.1367 61.6025 31.1367C60.8597 31.1367 60.2536 30.9248 59.7842 30.501C59.3148 30.0771 59.0801 29.5531 59.0801 28.9287C59.0801 28.1403 59.3717 27.5365 59.9551 27.1172C60.543 26.6934 61.3815 26.4814 62.4707 26.4814H63.4893V25.9961C63.4893 25.6133 63.3822 25.3079 63.168 25.0801C62.9538 24.8477 62.6279 24.7314 62.1904 24.7314C61.8122 24.7314 61.5023 24.8271 61.2607 25.0186C61.0192 25.2054 60.8984 25.4447 60.8984 25.7363H59.2373C59.2373 25.3307 59.3717 24.9525 59.6406 24.6016C59.9095 24.2461 60.2741 23.9681 60.7344 23.7676C61.1992 23.5671 61.7165 23.4668 62.2861 23.4668C63.152 23.4668 63.8424 23.6855 64.3574 24.123C64.8724 24.556 65.1367 25.1667 65.1504 25.9551V29.291C65.1504 29.9564 65.2438 30.4873 65.4307 30.8838V31H63.7354ZM61.9102 29.8037C62.2383 29.8037 62.5459 29.724 62.833 29.5645C63.1247 29.4049 63.3434 29.1908 63.4893 28.9219V27.5273H62.5938C61.9785 27.5273 61.516 27.6344 61.2061 27.8486C60.8962 28.0628 60.7412 28.3659 60.7412 28.7578C60.7412 29.0768 60.846 29.332 61.0557 29.5234C61.2699 29.7103 61.5547 29.8037 61.9102 29.8037ZM69.9287 29.8105C70.3434 29.8105 70.6875 29.6898 70.9609 29.4482C71.2344 29.2067 71.3802 28.9082 71.3984 28.5527H72.9639C72.9456 29.013 72.8021 29.4437 72.5332 29.8447C72.2643 30.2412 71.8997 30.5557 71.4395 30.7881C70.9792 31.0205 70.4824 31.1367 69.9492 31.1367C68.9147 31.1367 68.0944 30.8018 67.4883 30.1318C66.8822 29.4619 66.5791 28.5368 66.5791 27.3564V27.1855C66.5791 26.0599 66.8799 25.1598 67.4814 24.4854C68.083 23.8063 68.9033 23.4668 69.9424 23.4668C70.8219 23.4668 71.5374 23.7243 72.0889 24.2393C72.6449 24.7497 72.9365 25.4219 72.9639 26.2559H71.3984C71.3802 25.832 71.2344 25.4834 70.9609 25.21C70.6921 24.9365 70.348 24.7998 69.9287 24.7998C69.391 24.7998 68.9762 24.9958 68.6846 25.3877C68.3929 25.7751 68.2448 26.3652 68.2402 27.1582V27.4248C68.2402 28.2269 68.3838 28.8262 68.6709 29.2227C68.9626 29.6146 69.3818 29.8105 69.9287 29.8105ZM77.4756 31.1367C76.4229 31.1367 75.5684 30.8063 74.9121 30.1455C74.2604 29.4801 73.9346 28.596 73.9346 27.4932V27.2881C73.9346 26.5498 74.0758 25.8913 74.3584 25.3125C74.6455 24.7292 75.0465 24.2757 75.5615 23.9521C76.0765 23.6286 76.6507 23.4668 77.2842 23.4668C78.2913 23.4668 79.0684 23.7881 79.6152 24.4307C80.1667 25.0732 80.4424 25.9824 80.4424 27.1582V27.8281H75.6094C75.6595 28.4388 75.8623 28.9219 76.2178 29.2773C76.5778 29.6328 77.029 29.8105 77.5713 29.8105C78.3324 29.8105 78.9521 29.5029 79.4307 28.8877L80.3262 29.7422C80.0299 30.1842 79.6335 30.5283 79.1367 30.7744C78.6445 31.016 78.0908 31.1367 77.4756 31.1367ZM77.2773 24.7998C76.8216 24.7998 76.4525 24.9593 76.1699 25.2783C75.8919 25.5973 75.7142 26.0417 75.6367 26.6113H78.8018V26.4883C78.7653 25.9323 78.6172 25.513 78.3574 25.2305C78.0977 24.9434 77.7376 24.7998 77.2773 24.7998ZM88.2285 27.377C88.2285 28.5254 87.971 29.4391 87.4561 30.1182C86.9456 30.7972 86.2415 31.1367 85.3438 31.1367C84.4779 31.1367 83.8034 30.8245 83.3203 30.2002L83.2383 31H81.7344V20.5H83.3955V24.3145C83.874 23.7493 84.5189 23.4668 85.3301 23.4668C86.2324 23.4668 86.9411 23.8018 87.4561 24.4717C87.971 25.1416 88.2285 26.0781 88.2285 27.2812V27.377ZM86.5674 27.2334C86.5674 26.4313 86.4261 25.8298 86.1436 25.4287C85.861 25.0277 85.4508 24.8271 84.9131 24.8271C84.193 24.8271 83.6872 25.1416 83.3955 25.7705V28.8193C83.6917 29.4619 84.2021 29.7832 84.9268 29.7832C85.4463 29.7832 85.8473 29.5895 86.1299 29.2021C86.4124 28.8148 86.5583 28.2292 86.5674 27.4453V27.2334ZM89.3154 27.2334C89.3154 26.5088 89.459 25.8571 89.7461 25.2783C90.0332 24.695 90.4365 24.2484 90.9561 23.9385C91.4756 23.624 92.0726 23.4668 92.7471 23.4668C93.7451 23.4668 94.554 23.7881 95.1738 24.4307C95.7982 25.0732 96.1354 25.9255 96.1855 26.9873L96.1924 27.377C96.1924 28.1061 96.0511 28.7578 95.7686 29.332C95.4906 29.9062 95.0895 30.3506 94.5654 30.665C94.0459 30.9795 93.4443 31.1367 92.7607 31.1367C91.7171 31.1367 90.8809 30.7904 90.252 30.0977C89.6276 29.4004 89.3154 28.473 89.3154 27.3154V27.2334ZM90.9766 27.377C90.9766 28.138 91.1338 28.735 91.4482 29.168C91.7627 29.5964 92.2002 29.8105 92.7607 29.8105C93.3213 29.8105 93.7565 29.5918 94.0664 29.1543C94.3809 28.7168 94.5381 28.0765 94.5381 27.2334C94.5381 26.486 94.3763 25.8936 94.0527 25.4561C93.7337 25.0186 93.2985 24.7998 92.7471 24.7998C92.2048 24.7998 91.7741 25.0163 91.4551 25.4492C91.1361 25.8776 90.9766 26.5202 90.9766 27.377ZM97.2861 27.2334C97.2861 26.5088 97.4297 25.8571 97.7168 25.2783C98.0039 24.695 98.4072 24.2484 98.9268 23.9385C99.4463 23.624 100.043 23.4668 100.718 23.4668C101.716 23.4668 102.525 23.7881 103.145 24.4307C103.769 25.0732 104.106 25.9255 104.156 26.9873L104.163 27.377C104.163 28.1061 104.022 28.7578 103.739 29.332C103.461 29.9062 103.06 30.3506 102.536 30.665C102.017 30.9795 101.415 31.1367 100.731 31.1367C99.6878 31.1367 98.8516 30.7904 98.2227 30.0977C97.5983 29.4004 97.2861 28.473 97.2861 27.3154V27.2334ZM98.9473 27.377C98.9473 28.138 99.1045 28.735 99.4189 29.168C99.7334 29.5964 100.171 29.8105 100.731 29.8105C101.292 29.8105 101.727 29.5918 102.037 29.1543C102.352 28.7168 102.509 28.0765 102.509 27.2334C102.509 26.486 102.347 25.8936 102.023 25.4561C101.704 25.0186 101.269 24.7998 100.718 24.7998C100.175 24.7998 99.7448 25.0163 99.4258 25.4492C99.1068 25.8776 98.9473 26.5202 98.9473 27.377ZM107.971 27.8281L107.232 28.5869V31H105.571V20.5H107.232V26.5566L107.752 25.9072L109.796 23.6035H111.792L109.044 26.6865L112.086 31H110.165L107.971 27.8281Z" fill="white"/>
<path d="M42 25.5C42 18.625 36.375 13 29.5 13C22.625 13 17 18.625 17 25.5C17 31.75 21.5312 36.9062 27.4688 37.8438V29.0937H24.3437V25.5H27.4688V22.6875C27.4688 19.5625 29.3438 17.8438 32.1563 17.8438C33.5625 17.8438 34.9688 18.1563 34.9688 18.1563V21.2812H33.4062C31.8438 21.2812 31.375 22.2188 31.375 23.1562V25.5H34.8125L34.1875 29.0937H31.2188V38C37.4688 37.0625 42 31.75 42 25.5Z" fill="white"/>
</svg>
