<svg width="124" height="124" viewBox="0 0 124 124" fill="none" xmlns="http://www.w3.org/2000/svg">
<g filter="url(#filter0_b_937_283)">
<rect x="1" y="1" width="122" height="122" rx="21" stroke="url(#paint0_linear_937_283)" stroke-opacity="0.2" stroke-width="2"/>
</g>
<path d="M81.0002 61.8453C81.0002 58.704 81.477 55.7793 82.4306 53.0713C83.3842 50.309 84.7352 47.926 86.4834 45.922C88.2847 43.918 90.4567 42.3474 92.9997 41.21C95.5426 40.0726 98.4034 39.5039 101.582 39.5039C105.502 39.5039 109.211 40.2351 112.707 41.6974L110.641 49.7403C109.529 49.2529 108.257 48.8467 106.827 48.5217C105.449 48.1968 103.966 48.0343 102.377 48.0343C98.6153 48.0343 95.7545 49.2529 93.7943 51.6901C91.8341 54.0732 90.8541 57.4583 90.8541 61.8453C90.8541 66.0699 91.7812 69.4279 93.6354 71.9193C95.4896 74.3566 98.6153 75.5752 103.012 75.5752C104.655 75.5752 106.271 75.4127 107.86 75.0877C109.449 74.7628 110.827 74.3566 111.992 73.8691L113.343 81.9933C112.283 82.5349 110.668 83.0223 108.496 83.4556C106.376 83.8889 104.178 84.1055 101.9 84.1055C98.3504 84.1055 95.2512 83.5639 92.6023 82.4807C90.0064 81.3433 87.8343 79.7997 86.0861 77.8499C84.3908 75.846 83.1193 73.49 82.2717 70.7819C81.4241 68.0197 81.0002 65.0408 81.0002 61.8453Z" fill="#F7941E"/>
<path fill-rule="evenodd" clip-rule="evenodd" d="M76.1864 61.7742C76.1864 58.0637 76.7496 54.6091 77.876 51.4104C79.0023 48.1477 80.598 45.3329 82.663 42.9658C84.7906 40.5988 87.3563 38.7435 90.3599 37.4C91.7041 36.7988 93.1234 36.3322 94.6179 36L76.187 37.2303V37.3095L66.0016 37.2829C64.8833 37.2826 63.8103 37.6657 63.017 38.3486C62.2238 39.0314 61.7748 39.9584 61.7681 40.9271V40.9792C61.7679 41.9481 62.2103 42.8776 62.9987 43.5648C63.7871 44.2519 64.8573 44.641 65.9757 44.6469L70.2002 44.6579C71.3185 44.6635 72.3887 45.0523 73.1771 45.7394C73.9655 46.4264 74.408 47.3558 74.4078 47.0942V47.1463C74.401 48.1151 73.9519 49.0421 73.1588 49.7251C72.3656 50.4081 71.2927 50.7915 70.1743 50.7916L55.5274 50.753C54.409 50.7529 53.336 51.1361 52.5428 51.819C51.7496 52.5019 51.3006 53.429 51.2939 54.3977V54.453C51.2941 55.4217 51.7367 56.351 52.5251 57.038C53.3136 57.725 54.3838 58.1138 55.5021 58.1196L60.8217 58.1332C61.9402 58.139 63.0106 58.5279 63.7991 59.2152C64.5876 59.9024 65.03 60.8319 65.0299 61.8008V61.853C65.0237 62.8217 64.5749 63.749 63.7817 64.432C62.9885 65.1149 61.9154 65.4981 60.797 65.4977L44.8059 65.456C43.6876 65.4559 42.6148 65.8393 41.8217 66.5222C41.0286 67.2051 40.5797 68.1321 40.573 69.1007V69.1528C40.5728 70.1217 41.0153 71.0512 41.8039 71.7383C42.5924 72.4255 43.6628 72.8144 44.7812 72.82L48.8601 72.8309C49.9784 72.8367 51.0486 73.2256 51.8371 73.9125C52.6255 74.5995 53.0681 75.5289 53.0683 76.4976V76.5221C53.0618 77.4909 52.6128 78.418 51.8196 79.101C51.0263 79.7839 49.9532 80.1671 48.8348 80.1668L31.6042 80.1214C30.4859 80.1216 29.4129 80.5049 28.6198 81.1879C27.8266 81.8709 27.3776 82.7979 27.3708 83.7667V83.8214C27.3706 84.7902 27.813 85.7196 28.6014 86.4067C29.3898 87.0938 30.46 87.4828 31.5784 87.4886L76.187 87.6052V87.6715H95.4877C93.4636 87.3543 91.5979 86.8466 89.8906 86.1484C86.8244 84.805 84.2587 82.9817 82.1937 80.6786C80.1913 78.3116 78.6894 75.5287 77.6882 72.33C76.687 69.0673 76.1864 65.5487 76.1864 61.7742ZM41.6561 40.9292C41.6557 41.8981 42.0981 42.8277 42.8865 43.5149C43.6749 44.2021 44.7452 44.5911 45.8637 44.5969L52.8198 44.6146C53.9381 44.6148 55.011 44.2315 55.8042 43.5486C56.5973 42.8656 57.0462 41.9386 57.0527 40.9699V40.9151C57.053 39.9463 56.6106 39.0168 55.8222 38.3297C55.0338 37.6425 53.9635 37.2536 52.8451 37.248L45.8889 37.2303C44.7706 37.2301 43.6977 37.6134 42.9046 38.2963C42.1114 38.9792 41.6626 39.9063 41.6561 40.875V40.9292ZM21.1218 56.9598C20.3333 56.2728 19.8907 55.3435 19.8906 54.3748V54.3196C19.8972 53.3508 20.3462 52.4238 21.1395 51.7408C21.9327 51.0579 23.0057 50.6747 24.124 50.6748L42.5574 50.7233C43.6757 50.7291 44.7459 51.1179 45.5344 51.8049C46.3228 52.4919 46.7655 53.4212 46.7656 54.3899V54.4452C46.7588 55.4139 46.3097 56.3409 45.5165 57.0237C44.7233 57.7066 43.6504 58.0899 42.5321 58.0899L24.0988 58.0415C22.9805 58.0357 21.9102 57.6468 21.1218 56.9598ZM27.6605 71.7102C26.872 71.0231 26.4295 70.0935 26.4297 69.1247L26.4291 69.07C26.4358 68.1013 26.8848 67.1742 27.678 66.4914C28.4713 65.8086 29.5443 65.4255 30.6626 65.4258L32.002 65.4289C33.1201 65.4348 34.1902 65.8237 34.9786 66.5107C35.7669 67.1977 36.2094 68.1269 36.2096 69.0955V69.1502C36.2031 70.1191 35.7541 71.0463 34.9609 71.7293C34.1676 72.4123 33.0945 72.7956 31.9761 72.7955L30.6379 72.7918C29.5195 72.7862 28.4491 72.3973 27.6605 71.7102ZM10 83.786C9.99998 84.7548 10.4425 85.6842 11.231 86.3713C12.0195 87.0584 13.0898 87.4473 14.2082 87.4531L20.4429 87.4693C21.5618 87.4694 22.6353 87.086 23.4288 86.4026C24.2222 85.7193 24.6712 84.7917 24.6776 83.8225V83.7704C24.6782 82.8013 24.2359 81.8715 23.4473 81.1842C22.6587 80.4969 21.588 80.108 20.4694 80.1027L14.2341 80.086C13.1157 80.086 12.0427 80.4693 11.2495 81.1523C10.4562 81.8353 10.0073 82.7625 10.0006 83.7313L10 83.786Z" fill="#F7941E"/>
<defs>
<filter id="filter0_b_937_283" x="-200" y="-200" width="524" height="524" filterUnits="userSpaceOnUse" color-interpolation-filters="sRGB">
<feFlood flood-opacity="0" result="BackgroundImageFix"/>
<feGaussianBlur in="BackgroundImage" stdDeviation="100"/>
<feComposite in2="SourceAlpha" operator="in" result="effect1_backgroundBlur_937_283"/>
<feBlend mode="normal" in="SourceGraphic" in2="effect1_backgroundBlur_937_283" result="shape"/>
</filter>
<linearGradient id="paint0_linear_937_283" x1="2" y1="2" x2="130.347" y2="118.064" gradientUnits="userSpaceOnUse">
<stop stop-color="white" stop-opacity="0"/>
<stop offset="0.473572" stop-color="white"/>
<stop offset="0.991527" stop-color="white" stop-opacity="0"/>
</linearGradient>
</defs>
</svg>
