<svg width="50" height="51" viewBox="0 0 50 51" fill="none" xmlns="http://www.w3.org/2000/svg">
<path opacity="0.15" d="M25 50.0562C38.8071 50.0562 50 38.8633 50 25.0562C50 11.249 38.8071 0.0561523 25 0.0561523C11.1929 0.0561523 0 11.249 0 25.0562C0 38.8633 11.1929 50.0562 25 50.0562Z" fill="#006CFB"/>
<g clip-path="url(#clip0)">
<path d="M24.6614 13C18.0539 13 12.6614 18.393 12.6614 25C12.6614 31.6075 18.0543 37 24.6614 37C31.2688 37 36.6614 31.607 36.6614 25C36.6614 18.3925 31.2684 13 24.6614 13ZM24.6614 35.5938C18.82 35.5938 14.0676 30.8414 14.0676 25C14.0676 19.1586 18.82 14.4062 24.6614 14.4062C30.5028 14.4062 35.2551 19.1586 35.2551 25C35.2551 30.8414 30.5028 35.5938 24.6614 35.5938ZM24.6614 15.8125C19.6158 15.8125 15.4739 19.954 15.4739 25C15.4739 30.0455 19.6154 34.1875 24.6614 34.1875C29.7069 34.1875 33.8489 30.046 33.8489 25C33.8489 19.9545 29.7073 15.8125 24.6614 15.8125ZM24.6614 32.7812C20.3708 32.7812 16.8801 29.2906 16.8801 25C16.8801 20.7094 20.3708 17.2188 24.6614 17.2188C28.952 17.2188 32.4426 20.7094 32.4426 25C32.4426 29.2906 28.952 32.7812 24.6614 32.7812ZM25.3645 21.4844C26.1399 21.4844 26.7708 22.1152 26.7708 22.8906C26.7708 23.2789 27.0856 23.5938 27.4739 23.5938C27.8622 23.5938 28.177 23.2789 28.177 22.8906C28.177 21.3398 26.9153 20.0781 25.3645 20.0781C23.8137 20.0781 22.552 21.3398 22.552 22.8906V25H21.8489C21.4606 25 21.1458 25.3148 21.1458 25.7031C21.1458 26.0914 21.4606 26.4062 21.8489 26.4062H22.552V28.5156H21.8489C21.4606 28.5156 21.1458 28.8304 21.1458 29.2188C21.1458 29.6071 21.4606 29.9219 21.8489 29.9219H27.4739C27.8622 29.9219 28.177 29.6071 28.177 29.2188C28.177 28.8304 27.8622 28.5156 27.4739 28.5156H23.9583V26.4062H26.0676C26.4559 26.4062 26.7708 26.0914 26.7708 25.7031C26.7708 25.3148 26.4559 25 26.0676 25H23.9583V22.8906C23.9583 22.1152 24.5891 21.4844 25.3645 21.4844Z" fill="#006CFB"/>
</g>
<defs>
<clipPath id="clip0">
<rect width="24" height="24" fill="white" transform="translate(12.6614 13)"/>
</clipPath>
</defs>
</svg>
