<svg width="50" height="51" viewBox="0 0 50 51" fill="none" xmlns="http://www.w3.org/2000/svg">
<path opacity="0.15" d="M49.2525 31.4781C45.913 44.871 32.3459 53.021 18.9498 49.682C5.56006 46.3429 -2.59164 32.7774 0.74858 19.3852C4.08646 5.99077 17.6528 -2.16075 31.045 1.17829C44.4402 4.51734 52.5911 18.0845 49.2517 31.4781H49.2525Z" fill="#F7931A"/>
<g clip-path="url(#clip0)">
<path d="M32.1443 32.4578C30.1221 34.48 27.4735 35.5938 24.6865 35.5938C22.5816 35.5938 20.5425 34.9514 18.7981 33.7599L19.0525 33.7723C19.44 33.7912 19.7702 33.4922 19.7891 33.1043C19.8081 32.7165 19.509 32.3867 19.1211 32.3677L16.7659 32.2526C16.535 32.2409 16.3143 32.3438 16.1738 32.5268C16.0334 32.7097 15.9916 32.9499 16.062 33.1695L16.8454 35.6141C16.9642 35.9849 17.3607 36.1874 17.7296 36.0692C18.0994 35.9507 18.3031 35.5548 18.1846 35.185L18.126 35.0024C20.0759 36.3007 22.344 37 24.6865 37C27.8491 37 30.8508 35.74 33.1386 33.4521C33.4132 33.1775 33.4132 32.7324 33.1386 32.4578C32.8641 32.1832 32.4189 32.1832 32.1443 32.4578ZM19.0615 22.1875C19.0615 21.0244 18.1153 20.0781 16.9521 20.0781C15.789 20.0781 14.8428 21.0244 14.8428 22.1875C14.8428 23.3506 15.789 24.2969 16.9521 24.2969C18.1153 24.2969 19.0615 23.3506 19.0615 22.1875ZM16.9521 22.8906C16.5644 22.8906 16.249 22.5752 16.249 22.1875C16.249 21.7998 16.5644 21.4844 16.9521 21.4844C17.3399 21.4844 17.6553 21.7998 17.6553 22.1875C17.6553 22.5752 17.3399 22.8906 16.9521 22.8906ZM17.2288 17.5422C19.251 15.52 21.8996 14.4062 24.6865 14.4062C26.7934 14.4062 28.8315 15.0484 30.5755 16.2402L30.3205 16.2277C29.9323 16.2084 29.6029 16.5078 29.5839 16.8957C29.565 17.2835 29.8641 17.6133 30.2519 17.6323L32.6072 17.7474C32.8341 17.7587 33.0569 17.6585 33.1992 17.4732C33.3396 17.2903 33.3815 17.0501 33.3111 16.8305L32.5276 14.3859C32.4091 14.0161 32.0132 13.8123 31.6435 13.9308C31.2737 14.0493 31.07 14.4452 31.1885 14.815L31.2469 14.9972C29.2976 13.699 27.0308 13 24.6865 13C21.5239 13 18.5222 14.26 16.2344 16.5479C15.9598 16.8225 15.9598 17.2676 16.2344 17.5422C16.5089 17.8168 16.9542 17.8168 17.2288 17.5422ZM34.5303 22.1875C34.5303 21.0244 33.584 20.0781 32.4209 20.0781C31.2578 20.0781 30.3115 21.0244 30.3115 22.1875C30.3115 23.3506 31.2578 24.2969 32.4209 24.2969C33.584 24.2969 34.5303 23.3506 34.5303 22.1875ZM32.4209 22.8906C32.0332 22.8906 31.7178 22.5752 31.7178 22.1875C31.7178 21.7998 32.0332 21.4844 32.4209 21.4844C32.8086 21.4844 33.124 21.7998 33.124 22.1875C33.124 22.5752 32.8086 22.8906 32.4209 22.8906ZM32.4209 24.2969C30.0947 24.2969 28.2021 26.1894 28.2021 28.5156V29.2188C28.2021 29.6071 28.517 29.9219 28.9053 29.9219H35.9834C36.3717 29.9219 36.6865 29.6071 36.6865 29.2188V28.5156C36.6865 26.193 34.7623 24.2969 32.4209 24.2969ZM29.6084 28.5156C29.6084 26.9648 30.8701 25.7031 32.4209 25.7031C33.9976 25.7031 35.2803 26.9648 35.2803 28.5156H29.6084ZM21.1709 29.2188V28.5156C21.1709 26.1894 19.2784 24.2969 16.9521 24.2969C15.8248 24.2969 14.7587 24.7341 13.9502 25.528C13.1353 26.3281 12.6865 27.3892 12.6865 28.5156V29.2188C12.6865 29.6071 13.0013 29.9219 13.3896 29.9219H20.4678C20.8561 29.9219 21.1709 29.6071 21.1709 29.2188ZM14.0928 28.5156C14.0928 26.9648 15.3755 25.7031 16.9521 25.7031C18.503 25.7031 19.7646 26.9648 19.7646 28.5156H14.0928Z" fill="#F7931A"/>
</g>
<defs>
<clipPath id="clip0">
<rect width="24" height="24" fill="white" transform="translate(12.6865 13)"/>
</clipPath>
</defs>
</svg>
