<svg width="50" height="50" viewBox="0 0 50 50" fill="none" xmlns="http://www.w3.org/2000/svg">
<path opacity="0.15" d="M25 50C38.8071 50 50 38.8071 50 25C50 11.1929 38.8071 0 25 0C11.1929 0 0 11.1929 0 25C0 38.8071 11.1929 50 25 50Z" fill="#23B852"/>
<g clip-path="url(#clip0)">
<path d="M17.4903 17.4901C21.1546 13.8258 26.8667 13.4269 30.977 16.2933C30.6593 16.2643 30.352 16.455 30.2468 16.7706C30.124 17.139 30.323 17.5372 30.6914 17.66L33.6745 18.6543C33.926 18.7382 34.2049 18.6736 34.394 18.4845C34.5823 18.2962 34.648 18.0176 34.5638 17.765L33.5695 14.7819C33.4467 14.4136 33.0486 14.2143 32.6801 14.3373C32.3117 14.4601 32.1127 14.8582 32.2355 15.2267L32.3467 15.5604C27.6596 11.8605 20.8199 12.1718 16.4959 16.4958C14.9212 18.0705 13.8215 20.0463 13.3158 22.2095C12.8244 24.3116 12.9078 26.5092 13.5569 28.5646C13.6739 28.935 14.0689 29.1403 14.4391 29.0234C14.8094 28.9064 15.0148 28.5115 14.8979 28.1412C13.7048 24.3635 14.6981 20.2822 17.4903 17.4901ZM25 24.2968C24.6123 24.2968 24.2969 23.9814 24.2969 23.5937C24.2969 23.206 24.6123 22.8906 25 22.8906C25.2233 22.8906 25.4284 22.9932 25.5629 23.1722C25.7961 23.4826 26.2368 23.5452 26.5473 23.312C26.8578 23.0788 26.9204 22.638 26.6871 22.3276C26.4357 21.993 26.0902 21.7443 25.7031 21.6067V20.7813C25.7031 20.393 25.3882 20.0782 24.9999 20.0782C24.6116 20.0782 24.2968 20.393 24.2968 20.7813V21.6053C23.4785 21.8956 22.8906 22.6771 22.8906 23.5937C22.8906 24.7568 23.8369 25.703 24.9999 25.703C25.3876 25.703 25.7031 26.0184 25.7031 26.4061C25.7031 26.7938 25.3876 27.1092 24.9999 27.1092C24.7767 27.1092 24.5715 27.0066 24.4371 26.8276C24.2038 26.5171 23.7631 26.4545 23.4527 26.6878C23.1422 26.921 23.0796 27.3618 23.3128 27.6722C23.5642 28.0068 23.9097 28.2555 24.2969 28.3931V29.2185C24.2969 29.6068 24.6117 29.9216 25 29.9216C25.3883 29.9216 25.7031 29.6068 25.7031 29.2185V28.3945C26.5215 28.1042 27.1093 27.3227 27.1093 26.4061C27.1093 25.243 26.1631 24.2968 25 24.2968ZM25 17.2657C20.7354 17.2657 17.2659 20.7353 17.2659 24.9999C17.2659 29.2645 20.7354 32.734 25 32.734C29.2646 32.734 32.7341 29.2645 32.7341 24.9999C32.7341 20.7353 29.2646 17.2657 25 17.2657ZM25 31.3278C21.5108 31.3278 18.6721 28.4891 18.6721 24.9999C18.6721 21.5107 21.5108 18.672 25 18.672C28.4892 18.672 31.3279 21.5107 31.3279 24.9999C31.3279 28.4891 28.4892 31.3278 25 31.3278ZM36.4431 21.4351C36.3261 21.0648 35.9312 20.8594 35.5609 20.9764C35.1906 21.0933 34.9852 21.4883 35.1021 21.8586C36.2952 25.6363 35.3018 29.7175 32.5097 32.5096C28.8453 36.174 23.1333 36.5729 19.0229 33.7065C19.3406 33.7354 19.6479 33.5447 19.7531 33.2291C19.8759 32.8607 19.6769 32.4625 19.3085 32.3397L16.3254 31.3454C16.0727 31.2611 15.7943 31.3269 15.6059 31.5153C15.4176 31.7035 15.3519 31.9821 15.4361 32.2348L16.4304 35.2178C16.5534 35.5868 16.9521 35.7851 17.3198 35.6624C17.6882 35.5396 17.8872 35.1415 17.7644 34.7731L17.6532 34.4393C19.8145 36.1454 22.4331 36.9992 25.0521 36.9992C28.113 36.9992 31.1738 35.8341 33.504 33.5039C35.0787 31.9292 36.1784 29.9534 36.6841 27.7902C37.1756 25.6882 37.0922 23.4906 36.4431 21.4351Z" fill="#23B852"/>
</g>
<defs>
<clipPath id="clip0">
<rect width="24" height="24" fill="white" transform="translate(13 13)"/>
</clipPath>
</defs>
</svg>
