<svg width="50" height="51" viewBox="0 0 50 51" fill="none" xmlns="http://www.w3.org/2000/svg">
<path opacity="0.15" d="M25 50.0562C38.8071 50.0562 50 38.8633 50 25.0562C50 11.249 38.8071 0.0561523 25 0.0561523C11.1929 0.0561523 0 11.249 0 25.0562C0 38.8633 11.1929 50.0562 25 50.0562Z" fill="#F70000"/>
<g clip-path="url(#clip0)">
<path d="M36.5189 20.3101C36.386 20.1345 36.1785 20.0312 35.9583 20.0312H33.0596C33.0852 19.8003 33.0989 19.5658 33.0989 19.3281C33.0989 15.8388 30.2601 13 26.7708 13C23.2814 13 20.4426 15.8388 20.4426 19.3281C20.4426 19.5658 20.4563 19.8003 20.4819 20.0312H18.24L17.3217 13.6037C17.2722 13.2573 16.9756 13 16.6256 13H13.3645C12.9762 13 12.6614 13.3148 12.6614 13.7031C12.6614 14.0914 12.9762 14.4062 13.3645 14.4062H16.0158L16.934 20.8337C16.934 20.8337 16.9341 20.8338 16.9341 20.8339L17.9953 28.3565C18.1105 29.1626 18.5025 29.9024 19.1015 30.4511C18.6326 30.8383 18.3333 31.4239 18.3333 32.0781C18.3333 33.0495 18.9934 33.8692 19.8886 34.1132C19.7928 34.354 19.7395 34.6161 19.7395 34.8906C19.7395 36.0537 20.6858 37 21.8489 37C23.012 37 23.9583 36.0537 23.9583 34.8906C23.9583 34.6442 23.9154 34.4076 23.8373 34.187H29.7042C29.6261 34.4076 29.5833 34.6441 29.5833 34.8906C29.5833 36.0537 30.5295 37 31.6926 37C32.8557 37 33.802 36.0537 33.802 34.8906C33.802 33.7275 32.8557 32.7812 31.6926 32.7812H20.4426C20.0549 32.7812 19.7395 32.4658 19.7395 32.0781C19.7395 31.6904 20.0549 31.375 20.4426 31.375H30.9774C32.5663 31.375 33.9757 30.3265 34.4052 28.8231L36.6349 20.9254C36.6948 20.7135 36.6519 20.4857 36.5189 20.3101ZM31.6926 34.1875C32.0803 34.1875 32.3958 34.5029 32.3958 34.8906C32.3958 35.2783 32.0803 35.5938 31.6926 35.5938C31.3049 35.5938 30.9895 35.2783 30.9895 34.8906C30.9895 34.5029 31.3049 34.1875 31.6926 34.1875ZM21.8489 34.1875C22.2366 34.1875 22.552 34.5029 22.552 34.8906C22.552 35.2783 22.2366 35.5938 21.8489 35.5938C21.4612 35.5938 21.1458 35.2783 21.1458 34.8906C21.1458 34.5029 21.4612 34.1875 21.8489 34.1875ZM27.427 15.9334V15.1094C27.427 14.7243 27.1173 14.4118 26.7333 14.4067C26.7458 14.4066 26.7582 14.4062 26.7708 14.4062C29.4847 14.4062 31.6926 16.6142 31.6926 19.3281C31.6926 22.042 29.4847 24.25 26.7708 24.25C26.7582 24.25 26.7458 24.2496 26.7333 24.2495C27.1173 24.2444 27.427 23.932 27.427 23.5469V22.7228C28.2454 22.4326 28.8333 21.651 28.8333 20.7344C28.8333 19.5713 27.887 18.625 26.7239 18.625C26.3362 18.625 26.0208 18.3096 26.0208 17.9219C26.0208 17.5342 26.3362 17.2188 26.7239 17.2188C27.1116 17.2188 27.427 17.5342 27.427 17.9219C27.427 18.3102 27.7418 18.625 28.1301 18.625C28.5184 18.625 28.8333 18.3102 28.8333 17.9219C28.8333 17.0052 28.2454 16.2237 27.427 15.9334ZM26.7081 14.407C26.3272 14.4155 26.0208 14.7264 26.0208 15.1094V15.9334C25.2024 16.2237 24.6145 17.0052 24.6145 17.9219C24.6145 19.085 25.5608 20.0312 26.7239 20.0312C27.1116 20.0312 27.427 20.3467 27.427 20.7344C27.427 21.1221 27.1116 21.4375 26.7239 21.4375C26.3362 21.4375 26.0208 21.1221 26.0208 20.7344C26.0208 20.3461 25.7059 20.0312 25.3176 20.0312C24.9293 20.0312 24.6145 20.3461 24.6145 20.7344C24.6145 21.651 25.2024 22.4326 26.0208 22.7228V23.5469C26.0208 23.9299 26.3272 24.2408 26.7081 24.2492C24.023 24.2155 21.8489 22.0211 21.8489 19.3281C21.8489 16.6352 24.023 14.4408 26.7081 14.407ZM33.0525 28.4389C32.7992 29.3253 31.9265 29.9688 30.9774 29.9688C30.5759 29.9688 22.0546 29.9688 21.4757 29.9688C20.4327 29.9688 19.535 29.1902 19.3876 28.1589L18.4394 21.4375H20.8046C21.6753 23.8928 24.0207 25.6562 26.7708 25.6562C29.5208 25.6562 31.8663 23.8928 32.7369 21.4375H35.0291L33.0525 28.4389Z" fill="#F70000"/>
</g>
<defs>
<clipPath id="clip0">
<rect width="24" height="24" fill="white" transform="translate(12.6614 13)"/>
</clipPath>
</defs>
</svg>
