<svg width="50" height="51" viewBox="0 0 50 51" fill="none" xmlns="http://www.w3.org/2000/svg">
<path opacity="0.15" fill-rule="evenodd" clip-rule="evenodd" d="M25 50.9116C38.8071 50.9116 50 39.7187 50 25.9116C50 12.1045 38.8071 0.911621 25 0.911621C11.1929 0.911621 0 12.1045 0 25.9116C0 39.7187 11.1929 50.9116 25 50.9116Z" fill="#F04086"/>
<path d="M33.7992 37.2385L32.3929 20.3635C32.3628 19.9989 32.0586 19.7188 31.6926 19.7188H28.177V17.5156C28.177 15.5772 26.5998 14 24.6613 14C22.7229 14 21.1457 15.5772 21.1457 17.5156V19.7188H17.6301C17.2641 19.7188 16.9599 19.9989 16.9297 20.3635L15.5235 37.2385C15.507 37.4342 15.5736 37.6285 15.7061 37.7727C15.8393 37.9176 16.0275 38 16.2238 38H33.0988C33.2952 38 33.4833 37.9176 33.6166 37.7727C33.7491 37.6285 33.8157 37.4342 33.7992 37.2385ZM22.552 17.5156C22.552 16.3525 23.4982 15.4062 24.6613 15.4062C25.8245 15.4062 26.7707 16.3525 26.7707 17.5156V19.7188H22.552V17.5156ZM16.9881 36.5938L18.2769 21.125H21.1457V23.2344C21.1457 23.623 21.4602 23.9375 21.8488 23.9375C22.2375 23.9375 22.552 23.623 22.552 23.2344V21.125H26.7707V23.2344C26.7707 23.623 27.0852 23.9375 27.4738 23.9375C27.8625 23.9375 28.177 23.623 28.177 23.2344V21.125H31.0458L32.3346 36.5938H16.9881Z" fill="#F04086"/>
</svg>
