<svg width="20" height="20" viewBox="0 0 25 20" fill="none" xmlns="http://www.w3.org/2000/svg">
<path d="M25 2.34375C24.0625 2.8125 23.125 2.96875 22.0313 3.125C23.125 2.5 23.9062 1.5625 24.2188 0.3125C23.2812 0.9375 22.1875 1.25 20.9375 1.5625C20 0.625 18.5937 0 17.1875 0C13.9063 0 11.4063 3.125 12.1875 6.25C7.96875 6.09375 4.21875 4.0625 1.5625 0.937501C0.15625 3.28125 0.9375 6.25 3.125 7.8125C2.34375 7.8125 1.5625 7.5 0.78125 7.1875C0.78125 9.53125 2.5 11.7187 4.84375 12.3437C4.0625 12.5 3.28125 12.6563 2.5 12.5C3.125 14.5312 5 16.0937 7.34375 16.0937C5.46875 17.5 2.65625 18.2813 0 17.9688C2.34375 19.375 5 20.3125 7.8125 20.3125C17.3437 20.3125 22.6562 12.3437 22.3437 5C23.4375 4.375 24.375 3.4375 25 2.34375Z" fill="white"/>
</svg>
