<svg width="130" height="50" viewBox="0 0 130 50" fill="none" xmlns="http://www.w3.org/2000/svg">
<rect width="130" height="50" rx="8" fill="#1DA1F2"/>
<path d="M59.2031 21.4414H56.0996V30H54.3838V21.4414H51.3076V20.0469H59.2031V21.4414ZM66.5244 27.71L67.7002 22.6035H69.3203L67.3037 30H65.9365L64.3506 24.9209L62.792 30H61.4248L59.4014 22.6035H61.0215L62.2178 27.6553L63.7354 22.6035H64.9863L66.5244 27.71ZM72.1982 30H70.5371V22.6035H72.1982V30ZM70.4346 20.6826C70.4346 20.4274 70.5143 20.2155 70.6738 20.0469C70.8379 19.8783 71.0703 19.7939 71.3711 19.7939C71.6719 19.7939 71.9043 19.8783 72.0684 20.0469C72.2324 20.2155 72.3145 20.4274 72.3145 20.6826C72.3145 20.9333 72.2324 21.1429 72.0684 21.3115C71.9043 21.4756 71.6719 21.5576 71.3711 21.5576C71.0703 21.5576 70.8379 21.4756 70.6738 21.3115C70.5143 21.1429 70.4346 20.9333 70.4346 20.6826ZM76.0947 20.8057V22.6035H77.4004V23.834H76.0947V27.9629C76.0947 28.2454 76.1494 28.4505 76.2588 28.5781C76.3727 28.7012 76.5732 28.7627 76.8604 28.7627C77.0518 28.7627 77.2454 28.7399 77.4414 28.6943V29.9795C77.0632 30.0843 76.6986 30.1367 76.3477 30.1367C75.0716 30.1367 74.4336 29.4326 74.4336 28.0244V23.834H73.2168V22.6035H74.4336V20.8057H76.0947ZM80.7568 20.8057V22.6035H82.0625V23.834H80.7568V27.9629C80.7568 28.2454 80.8115 28.4505 80.9209 28.5781C81.0348 28.7012 81.2354 28.7627 81.5225 28.7627C81.7139 28.7627 81.9076 28.7399 82.1035 28.6943V29.9795C81.7253 30.0843 81.3607 30.1367 81.0098 30.1367C79.7337 30.1367 79.0957 29.4326 79.0957 28.0244V23.834H77.8789V22.6035H79.0957V20.8057H80.7568ZM86.5947 30.1367C85.542 30.1367 84.6875 29.8063 84.0312 29.1455C83.3796 28.4801 83.0537 27.596 83.0537 26.4932V26.2881C83.0537 25.5498 83.195 24.8913 83.4775 24.3125C83.7646 23.7292 84.1657 23.2757 84.6807 22.9521C85.1956 22.6286 85.7699 22.4668 86.4033 22.4668C87.4105 22.4668 88.1875 22.7881 88.7344 23.4307C89.2858 24.0732 89.5615 24.9824 89.5615 26.1582V26.8281H84.7285C84.7786 27.4388 84.9814 27.9219 85.3369 28.2773C85.6969 28.6328 86.1481 28.8105 86.6904 28.8105C87.4515 28.8105 88.0713 28.5029 88.5498 27.8877L89.4453 28.7422C89.1491 29.1842 88.7526 29.5283 88.2559 29.7744C87.7637 30.016 87.21 30.1367 86.5947 30.1367ZM86.3965 23.7998C85.9408 23.7998 85.5716 23.9593 85.2891 24.2783C85.0111 24.5973 84.8333 25.0417 84.7559 25.6113H87.9209V25.4883C87.8844 24.9323 87.7363 24.513 87.4766 24.2305C87.2168 23.9434 86.8568 23.7998 86.3965 23.7998ZM94.7295 24.1211C94.5107 24.0846 94.2852 24.0664 94.0527 24.0664C93.2917 24.0664 92.779 24.3581 92.5146 24.9414V30H90.8535V22.6035H92.4395L92.4805 23.4307C92.8815 22.7881 93.4375 22.4668 94.1484 22.4668C94.3854 22.4668 94.5814 22.4987 94.7363 22.5625L94.7295 24.1211Z" fill="white"/>
<path d="M42 17.3438C41.0625 17.8125 40.125 17.9688 39.0312 18.125C40.125 17.5 40.9062 16.5625 41.2188 15.3125C40.2812 15.9375 39.1875 16.25 37.9375 16.5625C37 15.625 35.5938 15 34.1875 15C30.9062 15 28.4062 18.125 29.1875 21.25C24.9688 21.0938 21.2188 19.0625 18.5625 15.9375C17.1563 18.2813 17.9375 21.25 20.125 22.8125C19.3438 22.8125 18.5625 22.5 17.7812 22.1875C17.7812 24.5313 19.5 26.7187 21.8438 27.3437C21.0625 27.5 20.2813 27.6562 19.5 27.5C20.125 29.5312 22 31.0937 24.3437 31.0937C22.4687 32.5 19.6562 33.2812 17 32.9688C19.3438 34.375 22 35.3125 24.8125 35.3125C34.3438 35.3125 39.6562 27.3437 39.3437 20C40.4375 19.375 41.375 18.4375 42 17.3438Z" fill="white"/>
</svg>
