<svg width="28" height="34" viewBox="0 0 28 34" fill="none" xmlns="http://www.w3.org/2000/svg">
<path d="M10.8851 15.8558H13.4168C14.8091 15.8558 16.1445 16.5095 17.1291 17.6731C18.1136 18.8367 18.6668 20.4148 18.6668 22.0604H10.4989L10.5001 23.4391H19.8334V22.0604C19.8297 20.5933 19.4711 19.158 18.7998 17.924H22.1668C23.2696 17.9236 24.3499 18.2927 25.2824 18.9885C26.2149 19.6842 26.9614 20.6781 27.4354 21.8549C24.6763 26.1581 20.2091 28.9543 15.1668 28.9543C11.9456 28.9543 9.21675 28.1408 7.00008 26.7138V13.8855C8.41947 14.1258 9.7598 14.8056 10.8851 15.8558ZM5.83342 26.1967C5.83342 26.5624 5.7105 26.9131 5.49171 27.1717C5.27291 27.4302 4.97617 27.5755 4.66675 27.5755H2.33342C2.024 27.5755 1.72725 27.4302 1.50846 27.1717C1.28966 26.9131 1.16675 26.5624 1.16675 26.1967V13.7876C1.16675 13.4219 1.28966 13.0712 1.50846 12.8127C1.72725 12.5541 2.024 12.4088 2.33342 12.4088H4.66675C4.97617 12.4088 5.27291 12.5541 5.49171 12.8127C5.7105 13.0712 5.83342 13.4219 5.83342 13.7876V26.1967ZM21.0001 6.89369C21.9283 6.89369 22.8186 7.32948 23.475 8.1052C24.1313 8.88092 24.5001 9.93302 24.5001 11.0301C24.5001 12.1271 24.1313 13.1792 23.475 13.9549C22.8186 14.7306 21.9283 15.1664 21.0001 15.1664C20.0718 15.1664 19.1816 14.7306 18.5252 13.9549C17.8688 13.1792 17.5001 12.1271 17.5001 11.0301C17.5001 9.93302 17.8688 8.88092 18.5252 8.1052C19.1816 7.32948 20.0718 6.89369 21.0001 6.89369ZM12.8334 2.75732C13.7617 2.75732 14.6519 3.19312 15.3083 3.96884C15.9647 4.74456 16.3334 5.79666 16.3334 6.89369C16.3334 7.99072 15.9647 9.04282 15.3083 9.81854C14.6519 10.5943 13.7617 11.0301 12.8334 11.0301C11.9052 11.0301 11.0149 10.5943 10.3585 9.81854C9.70217 9.04282 9.33342 7.99072 9.33342 6.89369C9.33342 5.79666 9.70217 4.74456 10.3585 3.96884C11.0149 3.19312 11.9052 2.75732 12.8334 2.75732Z" fill="#FFF6EC"/>
</svg>
