<?xml version="1.0" standalone="no"?>
<!DOCTYPE svg PUBLIC "-//W3C//DTD SVG 20010904//EN"
 "http://www.w3.org/TR/2001/REC-SVG-20010904/DTD/svg10.dtd">
<svg version="1.0" xmlns="http://www.w3.org/2000/svg"
 width="340.000000pt" height="296.000000pt" viewBox="0 0 340.000000 296.000000"
 preserveAspectRatio="xMidYMid meet">

<g transform="translate(0.000000,296.000000) scale(0.100000,-0.100000)"
fill="#000000" stroke="none">
<path d="M756 2705 c4 -8 8 -15 10 -15 2 0 4 7 4 15 0 8 -4 15 -10 15 -5 0 -7
-7 -4 -15z"/>
<path d="M815 2711 c3 -5 1 -12 -4 -16 -6 -3 -8 -33 -6 -67 2 -36 -1 -68 -7
-75 -6 -8 -7 -13 -1 -13 6 0 11 -36 12 -81 2 -62 -1 -79 -10 -73 -9 5 -10 2
-5 -12 4 -10 9 -40 12 -67 4 -46 46 -157 59 -157 3 0 3 5 -1 12 -4 7 -3 8 5 4
6 -4 8 -12 5 -18 -8 -13 64 -82 113 -106 21 -11 54 -23 73 -27 19 -4 39 -10
44 -13 5 -3 21 -7 35 -8 62 -8 78 -11 89 -18 18 -11 27 23 9 37 -8 7 -65 100
-127 207 -209 363 -232 400 -249 400 -11 0 -12 3 -4 8 9 6 6 19 -13 50 -14 23
-27 42 -30 42 -3 0 -3 -4 1 -9z"/>
<path d="M700 2550 c0 -5 5 -10 11 -10 5 0 7 5 4 10 -3 6 -8 10 -11 10 -2 0
-4 -4 -4 -10z"/>
<path d="M741 2484 c0 -11 3 -14 6 -6 3 7 2 16 -1 19 -3 4 -6 -2 -5 -13z"/>
<path d="M308 1983 c6 -2 18 -2 25 0 6 3 1 5 -13 5 -14 0 -19 -2 -12 -5z"/>
<path d="M1248 1893 c23 -2 61 -2 85 0 23 2 4 4 -43 4 -47 0 -66 -2 -42 -4z"/>
<path d="M1492 1893 l87 -4 4 -112 3 -112 2 118 2 117 -92 -2 -93 -2 87 -3z"/>
<path d="M174 1805 c-17 -17 -63 -67 -102 -111 l-72 -82 0 -263 0 -263 28 27
c15 15 35 27 43 27 37 0 46 31 52 180 5 142 6 147 43 224 33 69 39 92 42 166
2 47 3 95 1 105 -4 17 -7 16 -35 -10z"/>
<path d="M1775 1770 c-22 -3 -58 -16 -80 -29 -39 -22 -34 -21 35 5 79 30 197
9 254 -44 36 -34 66 -97 66 -142 0 -46 -42 -134 -74 -155 -14 -10 -26 -22 -26
-28 0 -6 18 6 40 28 111 108 86 271 -50 337 -62 30 -107 37 -165 28z"/>
<path d="M2245 1194 c-19 -10 -31 -11 -33 -5 -2 7 -35 10 -85 9 l-82 -2 78 -3
c59 -3 77 -7 77 -18 0 -19 5 -19 37 2 18 12 46 18 84 18 65 0 98 -18 138 -76
20 -29 22 -30 16 -9 -9 33 -71 87 -108 94 -49 10 -91 7 -122 -10z"/>
<path d="M2624 1189 c-46 -17 -122 -79 -98 -79 6 0 21 11 33 24 22 24 68 46
131 64 29 8 31 10 10 10 -14 1 -48 -8 -76 -19z"/>
<path d="M1886 1187 c23 -8 47 -18 55 -22 10 -5 9 -3 -2 9 -8 9 -33 19 -55 22
l-39 4 41 -13z"/>
<path d="M6 923 c-3 -4 -6 -87 -6 -185 l0 -178 180 0 c193 0 222 6 254 52 19
27 21 98 4 99 -7 0 -40 0 -73 -1 -57 -1 -169 19 -197 36 -66 39 -128 116 -128
158 0 15 -24 29 -34 19z"/>
<path d="M2873 840 c-18 -16 -51 -34 -73 -40 -55 -15 -51 -41 7 -53 47 -9 75
-33 54 -47 -8 -4 -28 -4 -45 1 -17 5 -32 9 -33 9 -1 0 -9 -7 -17 -16 -20 -19
-20 -57 -1 -94 11 -21 12 -29 3 -32 -31 -11 89 -30 157 -26 61 4 82 10 115 33
22 15 40 32 40 38 0 6 32 43 70 83 40 41 68 78 65 86 -4 9 -27 13 -83 13 -79
1 -140 22 -171 59 -20 24 -52 19 -88 -14z"/>
<path d="M1381 717 c-20 -25 -23 -65 -6 -96 9 -17 13 -36 10 -41 -9 -14 104
-33 159 -25 28 3 65 5 81 3 17 -1 103 -3 192 -3 l162 0 33 33 c42 40 53 40 67
2 12 -35 27 -38 56 -10 17 16 29 19 73 13 41 -5 52 -9 50 -22 -2 -12 -20 -17
-73 -22 l-70 -5 66 -2 c63 -2 66 -1 100 35 18 20 28 33 22 29 -26 -15 -12 11
27 49 45 44 50 61 20 70 -23 7 -156 -2 -242 -16 -36 -6 -64 -6 -75 -1 -29 15
-640 23 -652 9z"/>
<path d="M1170 576 c0 -14 4 -27 8 -30 5 -3 6 8 4 25 -5 35 -12 38 -12 5z"/>
<path d="M468 543 c29 -2 74 -2 100 0 26 2 2 3 -53 3 -55 0 -76 -1 -47 -3z"/>
<path d="M953 543 c26 -2 68 -2 95 0 26 2 4 3 -48 3 -52 0 -74 -1 -47 -3z"/>
<path d="M1283 543 c15 -2 39 -2 55 0 15 2 2 4 -28 4 -30 0 -43 -2 -27 -4z"/>
<path d="M2418 543 c7 -3 16 -2 19 1 4 3 -2 6 -13 5 -11 0 -14 -3 -6 -6z"/>
</g>
</svg>
